<?xml version="1.0" standalone="no"?>
<!DOCTYPE svg PUBLIC "-//W3C//DTD SVG 20010904//EN"
 "http://www.w3.org/TR/2001/REC-SVG-20010904/DTD/svg10.dtd">
<svg version="1.0" xmlns="http://www.w3.org/2000/svg"
 width="432.000000pt" height="432.000000pt" viewBox="0 0 432.000000 432.000000"
 preserveAspectRatio="xMidYMid meet">
<metadata>
Created by potrace 1.11, written by Peter Selinger 2001-2013
</metadata>
<g transform="translate(0.000000,432.000000) scale(0.100000,-0.100000)"
fill="#000000" stroke="none">
<path d="M1955 4313 c-259 -30 -516 -101 -725 -201 -614 -294 -1059 -867
-1190 -1531 -30 -154 -35 -217 -34 -431 0 -178 5 -256 19 -332 28 -149 37
-188 66 -283 200 -645 667 -1149 1290 -1391 145 -56 278 -90 499 -129 62 -11
443 -13 525 -3 68 8 125 19 294 54 55 11 223 70 316 109 242 104 444 239 641
428 345 331 570 763 641 1232 2 17 7 41 10 55 10 44 11 453 2 515 -5 33 -12
75 -14 93 -83 560 -411 1086 -890 1428 -85 60 -225 146 -225 137 0 -3 -8 1
-17 9 -42 36 -272 128 -428 171 -204 57 -345 75 -585 74 -91 -1 -178 -2 -195
-4z"/>
</g>
</svg>
