<svg xmlns="http://www.w3.org/2000/svg" viewBox="0 0 150.63 25.63"><defs><style>.cls-1{fill:#fff;}.cls-2{fill:#f7ccb1;}.cls-3{fill:#f1a597;}</style></defs><title>Zasób 1</title><g id="Warstwa_2" data-name="Warstwa 2"><g id="Warstwa_1-2" data-name="Warstwa 1"><path class="cls-1" d="M119.19,13.53h0a13,13,0,0,1-12.79,12.1l-95.13-.19A11.18,11.18,0,0,1,0,14.33c0-.34,0-.69,0-1H0A13,13,0,0,1,12.83,1.23L108,1.38a11.2,11.2,0,0,1,11.27,11.13C119.23,12.85,119.22,13.19,119.19,13.53Z"/><path class="cls-2" d="M138.11,13.79h0a5.77,5.77,0,0,1-5.66,5.36l-20.75-.06a5,5,0,0,1-5-5c0-.12,0-.23,0-.35h0a5.75,5.75,0,0,1,5.66-5.35l20.78,0a5,5,0,0,1,5,5C138.12,13.56,138.12,13.68,138.11,13.79Z"/><path class="cls-2" d="M150.6,13.59h0a11.53,11.53,0,0,1-11.29,10.68l-15.24,0a9.9,9.9,0,0,1-10-9.83c0-.3,0-.61,0-.91h0A11.51,11.51,0,0,1,125.45,2.8l15.24,0a9.89,9.89,0,0,1,9.94,9.85C150.63,13,150.62,13.29,150.6,13.59Z"/><path class="cls-3" d="M136.14,2.73h0a3.77,3.77,0,0,1-2.88,4.19L122,9.45a3.22,3.22,0,0,1-3.92-2.35L118,6.81h0a3.76,3.76,0,0,1,2.88-4.18L132.17.09a3.25,3.25,0,0,1,3.92,2.38A2.38,2.38,0,0,1,136.14,2.73Z"/></g></g></svg>