<svg xmlns="http://www.w3.org/2000/svg" viewBox="0 0 150.62 26.36"><defs><style>.cls-1{fill:#ccc;}</style></defs><title>Zasób 2</title><g id="Warstwa_2" data-name="Warstwa 2"><g id="Warstwa_1-2" data-name="Warstwa 1"><path class="cls-1" d="M119.18,13.63h0a13,13,0,0,1-12.7,12.2l-95.13.53A11.18,11.18,0,0,1,0,15.34c0-.35,0-.7,0-1H0A13,13,0,0,1,12.73,2.13l95.13-.56a11.2,11.2,0,0,1,11.35,11A8.46,8.46,0,0,1,119.18,13.63Z"/><path class="cls-1" d="M138.1,13.75h0a5.75,5.75,0,0,1-5.61,5.4l-20.76.1a5,5,0,0,1-5-5c0-.12,0-.24,0-.35h0a5.77,5.77,0,0,1,5.63-5.4l20.77-.12a5,5,0,0,1,5,5C138.11,13.53,138.11,13.64,138.1,13.75Z"/><path class="cls-1" d="M150.59,13.46h0a11.52,11.52,0,0,1-11.21,10.76l-15.24.09a9.9,9.9,0,0,1-10-9.76c0-.3,0-.61,0-.91h0A11.51,11.51,0,0,1,125.36,2.86l15.24-.09a9.9,9.9,0,0,1,10,9.78C150.62,12.85,150.61,13.15,150.59,13.46Z"/><path class="cls-1" d="M136.05,2.71h0a3.78,3.78,0,0,1-2.85,4.21L121.93,9.54A3.24,3.24,0,0,1,118,7.21l-.06-.28h0a3.75,3.75,0,0,1,2.85-4.2L132.06.1A3.24,3.24,0,0,1,136,2.44,1.31,1.31,0,0,1,136.05,2.71Z"/></g></g></svg>