<svg xmlns="http://www.w3.org/2000/svg" viewBox="0 0 334.1 1536.69"><defs><style>.cls-1{fill:#d3d3d3;}.cls-2{fill:#ccc;}.cls-3{fill:#fff9ff;}.cls-4{fill:#d3bae7;}.cls-5{fill:#5e3304;}.cls-6{fill:#bcbace;}.cls-7{fill:#1a685a;}.cls-8{fill:#409682;}.cls-9{fill:#4eaf9d;}</style></defs><title>Zasób 20</title><g id="Warstwa_2" data-name="Warstwa 2"><g id="background"><polygon class="cls-1" points="179.19 767.52 0 1536.69 0 0 178.8 767.52 179.19 767.52"/></g><g id="objects"><g id="plant"><ellipse class="cls-2" cx="248.63" cy="811.46" rx="28.69" ry="69.93" transform="translate(-572.88 1024.5) rotate(-87.5)"/><path class="cls-3" d="M290.08,720.81l-57,19.15v71.76c0,14.53,19.34,26.3,43.18,26.3s43.18-11.77,43.18-26.3V740Z"/><ellipse class="cls-4" cx="276.23" cy="739.96" rx="43.18" ry="26.3"/><path class="cls-5" d="M239.47,753.76c7.61,7.5,21.22,12.5,36.76,12.5s29.15-5,36.76-12.5a14.58,14.58,0,0,0,.8-4.72c0-12.64-16.81-22.89-37.56-22.89S238.67,736.4,238.67,749A14.58,14.58,0,0,0,239.47,753.76Z"/><path class="cls-6" d="M276.23,716.68c21.77,0,40.15,10.66,40.15,23.28S298,763.24,276.23,763.24,236.08,752.58,236.08,740s18.39-23.28,40.15-23.28m0-3c-23.84,0-43.18,11.77-43.18,26.3s19.34,26.3,43.18,26.3,43.18-11.77,43.18-26.3-19.33-26.3-43.18-26.3Z"/><path class="cls-7" d="M312.93,618.78c-3.61,7.68-3.66,16.49-3.64,25l.06,28.61c0,10.86,0,21.88-2.93,32.33s-9.31,20.43-19,25.26c-4.82,2.39-10.88,3.32-15.43.46a16.11,16.11,0,0,1-4.85-5.17c-11-17.18-.82-40.27,7.06-56.77A145.72,145.72,0,0,1,312.93,618.78Z"/><path class="cls-8" d="M231,697.2c-2.71-35.62-.88-71.92-9.62-106.56a143.51,143.51,0,0,1,31.47,104.91c7.89-24.62,15.86-49.75,15.72-75.61-.07-12.36,7.53-41.53,7.53-41.53s8.93,27.3,8.59,41.47c-1.65,70.41,3.16,22.06,3.93,28.69,1.64,14,1.61,28.18,2.42,42.27,11.72-35.43,43.1-84.26,43.1-84.26s-11.55,93.1-17.68,114.4c-6.95,24.16-29.56,40.59-55.47,34.88C237.39,750.66,232.45,716.78,231,697.2Z"/><path class="cls-9" d="M249.35,732.31c-4.93-13.54-.35-28.42,2.73-42.5,3.67-16.78,5.7-33.16,1.38-51.11s19-24.3,32.66,80.46c1,7.43,4.75,14.8,2.45,21.92-2.17,6.72-14.31,18.59-22.37,16.6C259.87,756.12,251.51,738.26,249.35,732.31Z"/></g></g></g></svg>