<svg xmlns="http://www.w3.org/2000/svg" viewBox="0 0 884.9 1536.69"><defs><style>.cls-1{fill:#d3d3d3;}.cls-2,.cls-3,.cls-4,.cls-5,.cls-6,.cls-7{fill:#ccc;}.cls-15,.cls-17,.cls-3{opacity:0.65;}.cls-16,.cls-4{opacity:0.5;}.cls-18,.cls-5{opacity:0.75;}.cls-6{opacity:0.41;}.cls-20,.cls-7{opacity:0.2;}.cls-15,.cls-8{fill:#fff;}.cls-9{fill:#132e7a;}.cls-10{fill:#f1a597;}.cls-11{fill:#f7ccb1;}.cls-12,.cls-16,.cls-18{fill:#231812;}.cls-13{fill:#754c24;}.cls-14{fill:#3e291c;}.cls-17,.cls-19{fill:#573c2f;}.cls-19{opacity:0.52;}.cls-20{fill:#0487a5;}.cls-21{stroke:#000;stroke-miterlimit:10;stroke-width:0.25px;}.cls-22{fill:#dcb100;}</style></defs><title>Zasób 21</title><g id="Warstwa_2" data-name="Warstwa 2"><g id="background"><polygon class="cls-1" points="705.71 769.18 884.9 0 884.9 1536.69 706.1 769.18 705.71 769.18"/></g><g id="objects"><g id="shadow"><path id="body" class="cls-2" d="M222.49,893l66.86,43.32c25,16.18,34.9,45.28,22.13,65l-9.1,14C289.61,1035,259,1037.87,234,1021.69l-66.87-43.31c-35-8.16-44.56-37.57-22.12-65l9.1-14C170.38,866.53,199.68,868.56,222.49,893Z"/><g id="spodnie"><rect class="cls-2" x="358.65" y="926.91" width="23.63" height="205.7" transform="matrix(0.54, -0.84, 0.84, 0.54, -695.22, 780.84)"/><rect class="cls-2" x="310.61" y="974.24" width="23.63" height="158.09" transform="translate(-736.89 751.25) rotate(-57.07)"/><path id="gacie" class="cls-2" d="M294.57,939l5.21,3.37c23.11,15,31.46,43.14,18.65,62.92l-9.13,14.09c-12.81,19.78-41.93,23.67-65,8.7l-5.21-3.37Z"/></g><rect id="szyja" class="cls-2" x="107.21" y="835.6" width="31.64" height="104.72" rx="15.82" transform="translate(-689.13 508.46) rotate(-57.07)"/><g id="ucho2"><circle class="cls-2" cx="58.74" cy="904.53" r="13.22"/><circle class="cls-2" cx="58.75" cy="904.61" r="8.46"/></g><g id="ucho2-2" data-name="ucho2"><circle class="cls-2" cx="112.3" cy="821.85" r="13.22"/><circle class="cls-2" cx="112.31" cy="821.92" r="8.46"/></g><g id="wlosy"><path class="cls-2" d="M86,798.6c25.12,19.76,38,47.74,25,67.83s-42,14.34-72.12,4.93c-51.6-16.1-42.71-44.59-25-67.83C33.6,777.62,64.33,781.56,86,798.6Z"/><path class="cls-2" d="M111.75,851.92,109.5,870.3c-2.64,21.5-22.63,37.05-44.65,34.73L51.27,903.6c-27.3-4.86-49.71-21.34-35.1-43.13l2.25-18.38c2.64-21.5,22.63-37.05,44.65-34.73l13.58,1.43C98.67,811.11,114.39,830.42,111.75,851.92Z"/></g><path id="twarz" class="cls-2" d="M142.22,900.88h0C125.68,926.42,97,931,74.6,916.48L45.48,897.61C23.59,884,10.57,860.51,32.07,829.52h0c15.15-26.71,44.72-34.26,67.62-15.6l29.12,18.87S170.41,862.36,142.22,900.88Z"/><g id="usta"><path class="cls-2" d="M106.16,893.76A32.18,32.18,0,0,0,122,872.62"/><path class="cls-2" d="M118.42,870.2c4.43,3.13,5,1.36,6.81.37"/><path class="cls-2" d="M105.25,898.18a7.64,7.64,0,0,0-1.26-8.12"/></g><g id="oko"><circle class="cls-2" cx="59.64" cy="876.25" r="11.01"/><circle class="cls-2" cx="59.64" cy="876.25" r="7.81"/><circle class="cls-2" cx="59.64" cy="876.25" r="3.8"/><circle class="cls-3" cx="58.04" cy="872.83" r="1.4"/><circle class="cls-3" cx="60.31" cy="872.63" r="0.4"/></g><g id="oko-2" data-name="oko"><circle class="cls-2" cx="86.2" cy="835.24" r="11.01"/><circle class="cls-2" cx="86.2" cy="835.24" r="7.81"/><circle class="cls-2" cx="86.2" cy="835.24" r="3.8"/><circle class="cls-3" cx="84.6" cy="831.82" r="1.4"/><circle class="cls-3" cx="86.88" cy="831.63" r="0.4"/></g><g id="broda"><rect class="cls-4" x="119.06" y="886.83" width="11.61" height="8.01" rx="4" transform="translate(-690.69 511.32) rotate(-57.07)"/><path class="cls-3" d="M117.13,866.17,99.28,891.81a4,4,0,0,1-5.58,1l-1-.7c-2.16-2.22,20.27-34.43,22.42-32.21l1,.7A4,4,0,0,1,117.13,866.17Z"/><path class="cls-5" d="M128.69,832.56S166.14,859.19,145.9,895a59.56,59.56,0,0,1-3.89,6c-16.65,25.72-46.09,31.28-67.9,15.82-4.52-3.2-17.45-11.08,2.09-3.64,23.44,4.54,45.28-1.65,55.93-18.1s7.4-38.78-6.23-58.28C111.82,821.2,122.15,827.47,128.69,832.56Z"/><path class="cls-6" d="M112.8,910.63c-10.52,4.25-23.3,5.13-36.6,2.55a78.56,78.56,0,0,0-8.54-2.88L67.1,910s16.12-9.13,23.21-11.08C95.13,897.54,106.21,905.44,112.8,910.63Z"/><path class="cls-6" d="M119.36,828.64a55.78,55.78,0,0,0,6.54,8.16c7.48,10.7,11.82,22.26,12.47,33.23-4.29-2.06-12.4-6.15-15.81-9.18C118.25,857,119.15,833.05,119.36,828.64Z"/></g><g id="brwi"><path class="cls-2" d="M67.78,837.48c-5.15,14.28-1.29-8.22-1.29-8.22s3-8.79,13-15.2S72.93,823.19,67.78,837.48Z"/><path class="cls-2" d="M38.77,878.27c-6.32,12.91-.37-8.08-.37-8.08a28.92,28.92,0,0,1,13.78-12.58C62.26,853,45.09,865.36,38.77,878.27Z"/></g><rect id="nos" class="cls-2" x="79.5" y="848.38" width="14.42" height="34.04" rx="7.21" transform="translate(-686.76 467.68) rotate(-57.07)"/><g id="okulary"><path class="cls-7" d="M96.7,809.38c1.24,1,1.87,2.63.77,3.41a2.29,2.29,0,0,0-.7,2.77.29.29,0,0,0,.13.14c1.33.78,18.69,11.34,11.46,26-1.85,3.75-6.57,12.43-13.6,13.61-8.49,1.43-19.76-3.56-20.37-4.53-1.92-3-4.87.13-4.87.13s-4.12,4.51-3.81,6.8A2.71,2.71,0,0,0,68.33,860s0,0,.06,0c.45.8,7.83,4.7,10.48,14.26,5.55,19.94-15.45,27.62-16.32,27.06h0c-.44.07-8.75,1.18-14.56-2.87-6-4.16-7.27-2.61-7.39-1.5-.09.79-2.21,2.18-3.53,1.3a2.08,2.08,0,0,1-.76-1,5,5,0,0,1-.28-1.51c-.22-4.71,3.22-18.1,9.7-26.51,4-5.16,16.48-10.73,16.61-11.3.08-.36-.15-1.53,3.47-6.78,2.57-3.73,3.91-5.08,4.52-5.48h0a16.78,16.78,0,0,0,.42-4.46c.07-5.63,1.54-9.76,4.4-15.08,2.73-5.11,8.73-9.23,9.16-9.56l0,0A19.64,19.64,0,0,0,92,810.15a2.86,2.86,0,0,1,3.73-1.33A3.83,3.83,0,0,1,96.7,809.38Z"/><path class="cls-2" d="M95.74,808.82A2.86,2.86,0,0,0,92,810.15a19.64,19.64,0,0,1-7.71,6.37l0,0c-.43.33-6.43,4.45-9.16,9.56-2.86,5.32-4.33,9.45-4.4,15.08a16.78,16.78,0,0,1-.42,4.46h0c-.61.4-2,1.75-4.52,5.48-3.62,5.25-3.39,6.42-3.47,6.78-.13.57-12.64,6.14-16.61,11.3-6.48,8.41-9.92,21.8-9.7,26.51a5,5,0,0,0,.28,1.51,2.08,2.08,0,0,0,.76,1c1.32.88,3.44-.51,3.53-1.3.12-1.11,1.42-2.66,7.39,1.5,5.81,4,14.12,2.94,14.56,2.87h0c.87.56,21.87-7.12,16.32-27.06-2.65-9.56-10-13.46-10.48-14.26,0,0,0,0-.06,0a2.71,2.71,0,0,1-2.62-2.33c-.31-2.29,3.81-6.8,3.81-6.8s3-3.17,4.87-.13c.61,1,11.88,6,20.37,4.53,7-1.18,11.75-9.86,13.6-13.61,7.23-14.62-10.13-25.18-11.46-26a.29.29,0,0,1-.13-.14,2.29,2.29,0,0,1,.7-2.77c1.1-.78.47-2.42-.77-3.41A3.83,3.83,0,0,0,95.74,808.82ZM72.31,867.33c15.22,19.42-5.27,33-13.69,32.67s-15.29-8.7-15.29-8.7C34.75,884.24,57.1,847.91,72.31,867.33Zm32.13-21.93c-10.35,16.91-29.62,1.44-27.93,2.53l-.21-.14s-8.52-7.61,1.45-22.08S98.47,820,98.47,820,114.8,828.5,104.44,845.4Z"/><rect class="cls-2" x="39.81" y="889.34" width="1.2" height="5.21" rx="0.6" transform="translate(-730.17 440.94) rotate(-57.07)"/><path class="cls-2" d="M39.58,892.12l1,.66L37,898.27a2.08,2.08,0,0,1-.76-1Z"/><rect class="cls-2" x="92.08" y="812.26" width="1.08" height="4.81" rx="0.54" transform="matrix(-0.54, 0.84, -0.84, -0.54, 826.71, 1179.83)"/><path class="cls-2" d="M96.7,809.38l-3.54,5.47-.93-.61,3.51-5.42A3.83,3.83,0,0,1,96.7,809.38Z"/></g><g id="rece"><path class="cls-2" d="M270.48,1057.56h0a8.81,8.81,0,0,0-2.64-11.62l-9.7-6.47a7.58,7.58,0,0,0-10.88,2.6h0a8.83,8.83,0,0,0,2.63,11.63l9.71,6.46A7.57,7.57,0,0,0,270.48,1057.56Z"/><path class="cls-2" d="M256.67,1058.3h0a2.86,2.86,0,0,0-.05-3.88l-6.1-6.42a2.47,2.47,0,0,0-3.65,0h0a2.86,2.86,0,0,0,0,3.88l6.1,6.42A2.47,2.47,0,0,0,256.67,1058.3Z"/><path class="cls-2" d="M241.1,836.8h0c3.83,3.52,4.89,8.84,2.37,11.88l-36.24,43.56c-2.53,3-7.68,2.63-11.51-.89h0c-3.83-3.53-4.89-8.85-2.36-11.89l36.24-43.55C232.12,832.87,237.27,833.27,241.1,836.8Z"/><path class="cls-2" d="M250.49,1044.23h0a10,10,0,0,0-3-13.14l-60.57-40.37a8.56,8.56,0,0,0-12.3,2.94h0a10,10,0,0,0,3,13.14l60.56,40.37A8.57,8.57,0,0,0,250.49,1044.23Z"/><path class="cls-2" d="M237.57,851.46l-.83,0a10,10,0,0,1-9.79-8.32l-10.12-67.65h18.76l9.88,66.06A8.57,8.57,0,0,1,237.57,851.46Z"/><path class="cls-2" d="M188.65,1005.2h0c-3.92,3.43-9.32,3.92-12.07,1.09L137.1,965.64c-2.75-2.83-1.81-7.91,2.1-11.35h0c3.92-3.43,9.32-3.92,12.07-1.09l39.48,40.65C193.5,996.68,192.56,1001.76,188.65,1005.2Z"/><path class="cls-2" d="M228.87,749.2h0a4.42,4.42,0,0,1,3.63,4.73l-1.68,15.81a3.78,3.78,0,0,1-4.48,3.35h0a4.4,4.4,0,0,1-3.62-4.72l1.67-15.82A3.79,3.79,0,0,1,228.87,749.2Z"/><path class="cls-2" d="M229.7,739.68h0a8.82,8.82,0,0,1,7.25,9.46l-1.23,11.6a7.57,7.57,0,0,1-9,6.7h0a8.82,8.82,0,0,1-7.25-9.45l1.23-11.6A7.58,7.58,0,0,1,229.7,739.68Z"/><path class="cls-2" d="M220.3,749.83h0a2.86,2.86,0,0,1,2.95,2.52l1,8.79A2.47,2.47,0,0,1,222,764h0a2.88,2.88,0,0,1-3-2.52l-1-8.79A2.47,2.47,0,0,1,220.3,749.83Z"/><path class="cls-2" d="M235.75,774.27l-.13,1.25H216.81l.47-4.35a8.62,8.62,0,0,1,10.21-7.58A10,10,0,0,1,235.75,774.27Z"/></g></g><g id="me"><path id="body-2" data-name="body" class="cls-8" d="M491.31,734.75V838.88c0,38.91-24.88,70.46-55.58,70.46H413.86c-30.69,0-55.58-31.55-55.58-70.46V734.75c-15.95-44.23,9.54-75.57,55.58-70.46h21.87C483.27,658.81,501.87,692.4,491.31,734.75Z"/><g id="spodnie-2" data-name="spodnie"><rect class="cls-9" x="440.76" y="860.13" width="30.88" height="246.05"/><rect class="cls-9" x="377.95" y="860.13" width="30.88" height="246.05"/><path class="cls-8" d="M502,1107.18H440.45c0-17.35,13.78-31.41,30.78-31.41S502,1089.83,502,1107.18Z"/><path class="cls-8" d="M408.83,1107.18H347.28c0-17.35,13.78-31.41,30.78-31.41S408.83,1089.83,408.83,1107.18Z"/><path id="gacie-2" data-name="gacie" class="cls-9" d="M492.06,846.52v8.12c0,36-25,65.16-55.76,65.16H414.35c-30.8,0-55.77-29.17-55.77-65.16v-8.12Z"/></g><rect id="szyja-2" data-name="szyja" class="cls-10" x="405.43" y="553.66" width="41.35" height="136.88" rx="20.68"/><g id="ucho2-3" data-name="ucho2"><circle class="cls-11" cx="362.25" cy="563.35" r="17.27"/><circle class="cls-10" cx="362.18" cy="563.42" r="11.06"/></g><g id="ucho2-4" data-name="ucho2"><circle class="cls-11" cx="491.01" cy="563.35" r="17.27"/><circle class="cls-10" cx="490.94" cy="563.42" r="11.06"/></g><g id="wlosy-2" data-name="wlosy"><path class="cls-12" d="M497.82,518c-3.84,41.59-25.37,75.62-56.66,75.62S395.6,557.7,384.51,518c-19-68.05,18.57-78.54,56.65-75.62C483.61,445.59,501.12,482.09,497.82,518Z"/><path class="cls-12" d="M457.63,584.12l-21.76,10.59c-25.46,12.38-56.73,1.5-69.83-24.31L358,554.49c-14.06-33.4-11.91-69.7,22.38-69.15l21.76-10.59c25.46-12.38,56.73-1.5,69.83,24.3L480,515C493.11,540.77,483.09,571.73,457.63,584.12Z"/></g><path id="twarz-2" data-name="twarz" class="cls-11" d="M425.58,652.33h0c-39.78,0-65.16-28.25-65.16-63.09V543.88c-.57-33.72,15.9-64.65,65.16-63.09h0c40.07-2.37,69.37,24.72,65.17,63.09v45.36S487.87,655.88,425.58,652.33Z"/><g id="usta-2" data-name="usta"><path class="cls-13" d="M407,609a43.78,43.78,0,0,0,35.63,2.54c1.79-.67,1-3.57-.8-2.89a40.83,40.83,0,0,1-33.32-2.24c-1.7-.91-3.21,1.68-1.51,2.59Z"/><path class="cls-13" d="M440.82,604.42a12,12,0,0,0,.91,6.07,5.48,5.48,0,0,0,3,2.41l.75.3.1,0-.19-.08.19.08c.14.07.28.13.41.21a1.55,1.55,0,0,0,2.06-.54,1.53,1.53,0,0,0-.54-2,14.61,14.61,0,0,0-1.63-.71l-.3-.12c-.07,0-.29-.12,0,0s.07,0,0,0a4.75,4.75,0,0,1-.59-.31c-.09-.05-.17-.13-.26-.17s.32.28.13.09l-.13-.11-.23-.24c-.18-.21.11.16.09.11a1.18,1.18,0,0,0-.13-.18,2.21,2.21,0,0,1-.18-.34c0-.06,0-.12-.08-.17.23.42.07.18,0,0a6.59,6.59,0,0,1-.27-1.06c0-.1,0-.21-.05-.31s0,.17,0,.16a1,1,0,0,0,0-.24c0-.27-.05-.54-.06-.8a20.61,20.61,0,0,1,0-2.08,1.5,1.5,0,0,0-1.5-1.5,1.53,1.53,0,0,0-1.5,1.5Z"/><path class="cls-13" d="M402.66,611.31a11.51,11.51,0,0,0,9.07-8.2,1.5,1.5,0,1,0-2.89-.8c-.07.22-.13.44-.21.66s-.08.21-.12.32c-.13.36.14-.29,0,.06a10.88,10.88,0,0,1-.66,1.21c-.12.2-.25.38-.38.57s.17-.2-.05.06l-.18.22a9,9,0,0,1-1,1c-.15.14-.32.28-.48.41.28-.23,0,0-.06,0l-.29.19a9.43,9.43,0,0,1-1.19.69l-.31.14c.23-.11.08,0-.07,0l-.65.22a9.67,9.67,0,0,1-1.34.3,1.51,1.51,0,0,0-1,1.85,1.55,1.55,0,0,0,1.84,1Z"/></g><g id="oko-3" data-name="oko"><circle class="cls-8" cx="393.92" cy="544.24" r="14.39"/><circle class="cls-14" cx="393.92" cy="544.24" r="10.21"/><circle cx="393.92" cy="544.24" r="4.97"/><circle class="cls-15" cx="396.53" cy="540.05" r="1.83"/><circle class="cls-15" cx="398.36" cy="542.41" r="0.52"/></g><g id="oko-4" data-name="oko"><circle class="cls-8" cx="457.77" cy="544.24" r="14.39"/><circle class="cls-14" cx="457.77" cy="544.24" r="10.21"/><circle cx="457.77" cy="544.24" r="4.97"/><circle class="cls-15" cx="460.39" cy="540.05" r="1.83"/><circle class="cls-15" cx="462.22" cy="542.41" r="0.52"/></g><g id="broda-2" data-name="broda"><rect class="cls-16" x="416.68" y="620.92" width="15.18" height="10.47" rx="5.23"/><path class="cls-17" d="M445.82,600.14,405,598.78a5.25,5.25,0,0,1-5.06-5.41l.05-1.59c.91-3.94,52.17-2.22,51.27,1.71l0,1.59A5.25,5.25,0,0,1,445.82,600.14Z"/><path class="cls-18" d="M490.91,588.94s-2.6,60-56.26,63.25a78.78,78.78,0,0,1-9.35,0c-40.05,0-67.07-28.34-65.61-63.25.3-7.24-.24-27,5.49-.3,11.67,28.94,34,48.51,59.59,48.51s47.8-19.45,59.5-48.26C491.39,562.36,491.84,578.15,490.91,588.94Z"/><path class="cls-19" d="M394,627c-12.14-8.52-22.19-21.93-28.81-38.34a101.86,101.86,0,0,0-2.9-11.42c0-.55,0-.86,0-.86S383.72,587.56,390.9,594C395.78,598.3,395,616.06,394,627Z"/><path class="cls-19" d="M488.58,575.92c-1.05,2-2.45,6-4.31,13-6.42,15.8-16,28.79-27.59,37.29-.78-6.16-2.06-18-1.17-23.86C456.63,594.88,483.6,578.83,488.58,575.92Z"/></g><g id="brwi-2" data-name="brwi"><path class="cls-12" d="M442.23,525.62c-19.33,4.5,8.1-7.25,8.1-7.25s11.75-3,25.89,3.4S461.56,521.11,442.23,525.62Z"/><path class="cls-12" d="M376.87,522.78c-18.65,2.24,8.61-6.15,8.61-6.15s11.38-1.62,23.58,6.18S395.52,520.54,376.87,522.78Z"/></g><rect id="nos-2" data-name="nos" class="cls-10" x="415.64" y="543.98" width="18.84" height="44.49" rx="9.42"/><g id="okulary-2" data-name="okulary"><path class="cls-20" d="M493.6,537.37c-.2,2.08-1.55,3.93-3.19,3.28a3,3,0,0,0-3.53,1.2.4.4,0,0,0-.07.24c.09,2,.85,28.56-20.33,31-5.43.63-18.31,1.62-24.59-5.25-7.61-8.3-10.14-24.21-9.51-25.57,2-4.26-3.61-5.25-3.61-5.25s-7.87-1.31-10.16.66a3.55,3.55,0,0,0-.7,4.52s.07,0,0,.07c-.55,1.07.4,11.93-8.2,21.64-17.93,20.25-41.27,2.68-41.28,1.33l0,0c-.39-.44-7.52-8.76-7.2-18,.33-9.51-2.3-9.84-3.6-9.18-.93.46-4-.87-3.94-2.95a2.74,2.74,0,0,1,.61-1.57,6.24,6.24,0,0,1,1.45-1.37c5-3.59,22.15-9.34,36-8.21,8.49.69,23.48,10.45,24.2,10.19.45-.16,1.58-1.24,9.9-1,5.93.17,8.36.69,9.23,1.06h0a21.73,21.73,0,0,0,5.19-2.7c6.23-3.93,11.8-5.25,19.67-5.9,7.55-.63,16.34,3,17,3.26l0,0c.5.32,6.2,3.93,12.46,3.93,2.6,0,3.81,1.47,4.12,3.15A5.34,5.34,0,0,1,493.6,537.37Z"/><path class="cls-21" d="M493.55,535.93c-.31-1.68-1.52-3.15-4.12-3.15-6.26,0-12-3.61-12.46-3.93l0,0c-.67-.24-9.46-3.89-17-3.26-7.87.65-13.44,2-19.67,5.9a21.73,21.73,0,0,1-5.19,2.7h0c-.87-.37-3.3-.89-9.23-1.06-8.32-.23-9.45.85-9.9,1-.72.26-15.71-9.5-24.2-10.19-13.82-1.13-31,4.62-36,8.21a6.24,6.24,0,0,0-1.45,1.37,2.74,2.74,0,0,0-.61,1.57c0,2.08,3,3.41,3.94,2.95,1.3-.66,3.93-.33,3.6,9.18-.32,9.25,6.81,17.57,7.2,18l0,0c0,1.35,23.35,18.92,41.28-1.33,8.6-9.71,7.65-20.57,8.2-21.64,0,0,0,0,0-.07a3.55,3.55,0,0,1,.7-4.52c2.29-2,10.16-.66,10.16-.66s5.58,1,3.61,5.25c-.63,1.36,1.9,17.27,9.51,25.57,6.28,6.87,19.16,5.88,24.59,5.25,21.18-2.46,20.42-29,20.33-31a.4.4,0,0,1,.07-.24,3,3,0,0,1,3.53-1.2c1.64.65,3-1.2,3.19-3.28A5.34,5.34,0,0,0,493.55,535.93ZM412.71,551.8c-10.49,30.49-40,17.71-45.58,8.2s-1.31-23-1.31-23C367.46,522.62,423.2,521.31,412.71,551.8Zm46.88,19.67C433.69,572.13,437,540,437,542.62v-.33s2.3-14.75,25.25-14.1,21,18.69,21,18.69S485.5,570.81,459.59,571.47Z"/><rect class="cls-22" x="362.25" y="530.89" width="1.57" height="6.8" rx="0.6"/><path class="cls-22" d="M362.25,533.51v1.57h-8.56a2.74,2.74,0,0,1,.61-1.57Z"/><rect class="cls-22" x="484.21" y="533.51" width="1.41" height="6.28" rx="0.6" transform="translate(969.82 1073.3) rotate(180)"/><path class="cls-22" d="M493.6,537.37h-8.51v-1.44h8.46A5.34,5.34,0,0,1,493.6,537.37Z"/></g><g id="rece-2" data-name="rece"><path class="cls-11" d="M328,886.48h0a5.76,5.76,0,0,0,6.11-4.83l3-20.57a5,5,0,0,0-4.6-5.69h0a5.76,5.76,0,0,0-6.11,4.83l-3,20.57A5,5,0,0,0,328,886.48Z"/><path class="cls-11" d="M326,898.8h0a11.52,11.52,0,0,0,12.23-9.65l2.18-15.08a9.91,9.91,0,0,0-9.2-11.38h0A11.53,11.53,0,0,0,319,872.34l-2.17,15.08A9.91,9.91,0,0,0,326,898.8Z"/><path class="cls-10" d="M317.33,882.92h0a3.74,3.74,0,0,0,4.55-2.24L326,869.87a3.23,3.23,0,0,0-2-4.31h0a3.76,3.76,0,0,0-4.56,2.24l-4.14,10.81A3.23,3.23,0,0,0,317.33,882.92Z"/><path class="cls-8" d="M560.16,731.21h0c-2.36,6.38-8.28,10.29-13.2,8.74l-70.64-22.24c-4.92-1.55-7-8-4.62-14.36h0c2.36-6.38,8.28-10.3,13.2-8.75l70.64,22.25C560.46,718.4,562.53,724.83,560.16,731.21Z"/><path class="cls-8" d="M330.46,867.72h0a13,13,0,0,0,13.82-10.91l13.58-94.16a11.21,11.21,0,0,0-10.4-12.87h0a13,13,0,0,0-13.82,10.91l-13.58,94.16A11.21,11.21,0,0,0,330.46,867.72Z"/><path class="cls-8" d="M612.65,632.68h0a13,13,0,0,1,2.88,17.37l-53.32,78.78a11.19,11.19,0,0,1-16.35,2.52h0A13,13,0,0,1,543,714L596.3,635.2A11.2,11.2,0,0,1,612.65,632.68Z"/><path class="cls-8" d="M341.73,772.8h0c-6.26-2.69-9.87-8.78-8.08-13.62l25.76-69.44c1.79-4.84,8.32-6.59,14.57-3.9h0c6.25,2.68,9.87,8.78,8.07,13.62L356.3,768.9C354.5,773.74,348,775.48,341.73,772.8Z"/><path class="cls-11" d="M623.44,617.14h0a5.76,5.76,0,0,1,1.28,7.68L613.07,642a5,5,0,0,1-7.23,1.12h0a5.76,5.76,0,0,1-1.27-7.69l11.64-17.21A5,5,0,0,1,623.44,617.14Z"/><path class="cls-11" d="M630.25,606.67h0A11.52,11.52,0,0,1,632.8,622l-8.54,12.62a9.9,9.9,0,0,1-14.46,2.23h0a11.51,11.51,0,0,1-2.55-15.36l8.54-12.62A9.9,9.9,0,0,1,630.25,606.67Z"/><path class="cls-10" d="M613.17,612.59h0a3.77,3.77,0,0,1,1.86,4.73l-4.21,10.78a3.23,3.23,0,0,1-4.41,1.82h0a3.75,3.75,0,0,1-1.86-4.72l4.21-10.79A3.24,3.24,0,0,1,613.17,612.59Z"/></g></g></g></g></svg>