<?xml version="1.0" encoding="utf-8"?>
<!-- Generator: Adobe Illustrator 23.0.6, SVG Export Plug-In . SVG Version: 6.00 Build 0)  -->
<svg version="1.1" id="Warstwa_1" xmlns="http://www.w3.org/2000/svg" xmlns:xlink="http://www.w3.org/1999/xlink" x="0px" y="0px"
	 viewBox="0 0 884.9 1536.7" style="enable-background:new 0 0 884.9 1536.7;" xml:space="preserve">
<style type="text/css">
	.st0{fill:#D3D3D3;}
	.st1{fill:#CCCCCC;}
	.st2{opacity:0.65;fill:#CCCCCC;enable-background:new    ;}
	.st3{opacity:0.5;fill:#CCCCCC;enable-background:new    ;}
	.st4{opacity:0.75;fill:#CCCCCC;enable-background:new    ;}
	.st5{opacity:0.41;fill:#CCCCCC;enable-background:new    ;}
	.st6{opacity:0.2;fill:#CCCCCC;enable-background:new    ;}
	.st7{fill:#FFFFFF;}
	.st8{fill:#132E7A;}
	.st9{fill:#F1A597;}
	.st10{fill:#F7CCB1;}
	.st11{fill:#231812;}
	.st12{fill:#754C24;}
	.st13{fill:#3E291C;}
	.st14{opacity:0.65;fill:#FFFFFF;enable-background:new    ;}
	.st15{opacity:0.5;fill:#231812;enable-background:new    ;}
	.st16{opacity:0.65;fill:#573C2F;enable-background:new    ;}
	.st17{opacity:0.75;fill:#231812;enable-background:new    ;}
	.st18{opacity:0.52;fill:#573C2F;enable-background:new    ;}
	.st19{opacity:0.2;fill:#0487A5;enable-background:new    ;}
	.st20{stroke:#000000;stroke-width:0.25;stroke-miterlimit:10;}
	.st21{fill:#DCB100;}
</style>
<title>Zasób 21</title>
<g>
	<g id="background">
		<polygon class="st0" points="705.7,769.2 884.9,0 884.9,1536.7 706.1,769.2 		"/>
	</g>
	<g id="objects">
		<g id="shadow">
			<path id="body" class="st1" d="M222.5,893l66.9,43.3c25,16.2,34.9,45.3,22.1,65l-9.1,14c-12.8,19.7-43.4,22.5-68.4,6.4
				l-66.9-43.3c-35-8.2-44.6-37.6-22.1-65l9.1-14C170.4,866.5,199.7,868.6,222.5,893z"/>
			<g id="spodnie">
				
					<rect x="358" y="923" transform="matrix(0.5408 -0.8412 0.8412 0.5408 -692.972 782.1466)" class="st1" width="23.6" height="205.4"/>
				
					<rect x="310.6" y="974.2" transform="matrix(0.5436 -0.8393 0.8393 0.5436 -736.8356 751.3079)" class="st1" width="23.6" height="158.1"/>
				<path id="gacie" class="st1" d="M294.6,939l5.2,3.4c23.1,15,31.5,43.1,18.6,62.9l-9.1,14.1c-12.8,19.8-41.9,23.7-65,8.7
					l-5.2-3.4L294.6,939z"/>
			</g>
			<path id="szyja" class="st1" d="M79.1,859.4L79.1,859.4c4.7-7.3,14.5-9.4,21.9-4.7l61.3,39.7c7.3,4.7,9.4,14.5,4.7,21.9h0
				c-4.7,7.3-14.5,9.4-21.9,4.7l-61.3-39.7C76.4,876.6,74.3,866.8,79.1,859.4z"/>
			<g id="ucho2">
				
					<ellipse transform="matrix(0.9999 -1.723368e-02 1.723368e-02 0.9999 -15.5797 1.1466)" class="st1" cx="58.7" cy="904.5" rx="13.2" ry="13.2"/>
				<circle class="st1" cx="58.8" cy="904.6" r="8.5"/>
			</g>
			<g id="ucho2-2">
				<circle class="st1" cx="112.3" cy="821.8" r="13.2"/>
				<circle class="st1" cx="112.3" cy="821.9" r="8.5"/>
			</g>
			<g id="wlosy">
				<path class="st1" d="M86,798.6c25.1,19.8,38,47.7,25,67.8s-42,14.3-72.1,4.9c-51.6-16.1-42.7-44.6-25-67.8
					C33.6,777.6,64.3,781.6,86,798.6z"/>
				<path class="st1" d="M111.8,851.9l-2.2,18.4c-2.6,21.5-22.6,37-44.7,34.7l-13.6-1.4c-27.3-4.9-49.7-21.3-35.1-43.1l2.2-18.4
					c2.6-21.5,22.6-37,44.7-34.7l13.6,1.4C98.7,811.1,114.4,830.4,111.8,851.9z"/>
			</g>
			<path id="twarz" class="st1" d="M142.2,900.9L142.2,900.9C125.7,926.4,97,931,74.6,916.5l-29.1-18.9
				c-21.9-13.6-34.9-37.1-13.4-68.1l0,0c15.2-26.7,44.7-34.3,67.6-15.6l29.1,18.9C128.8,832.8,170.4,862.4,142.2,900.9z"/>
			<g id="usta">
				<path class="st1" d="M106.2,893.8c8.1-4.5,13.8-12.2,15.8-21.1"/>
				<path class="st1" d="M118.4,870.2c4.4,3.1,5,1.4,6.8,0.4"/>
				<path class="st1" d="M105.2,898.2c1.2-2.7,0.7-5.9-1.3-8.1"/>
			</g>
			<g id="oko">
				<circle class="st1" cx="59.6" cy="876.2" r="11"/>
				<circle class="st1" cx="59.6" cy="876.2" r="7.8"/>
				<circle class="st1" cx="59.6" cy="876.2" r="3.8"/>
				<circle class="st2" cx="58" cy="872.8" r="1.4"/>
				<circle class="st2" cx="60.3" cy="872.6" r="0.4"/>
			</g>
			<g id="oko-2">
				<circle class="st1" cx="86.2" cy="835.2" r="11"/>
				<circle class="st1" cx="86.2" cy="835.2" r="7.8"/>
				<circle class="st1" cx="86.2" cy="835.2" r="3.8"/>
				<circle class="st2" cx="84.6" cy="831.8" r="1.4"/>
				<circle class="st2" cx="86.9" cy="831.6" r="0.4"/>
			</g>
			<g id="broda">
				<path class="st3" d="M120.6,890.1l2-3c1.2-1.9,3.7-2.4,5.5-1.2l0,0c1.9,1.2,2.4,3.7,1.2,5.5l-2,3c-1.2,1.9-3.7,2.4-5.5,1.2l0,0
					C119.9,894.5,119.4,892,120.6,890.1z"/>
				<path class="st2" d="M117.1,866.2l-17.8,25.6c-1.3,1.8-3.8,2.3-5.6,1c0,0,0,0,0,0l-1-0.7c-2.2-2.2,20.3-34.4,22.4-32.2l1,0.7
					C117.9,861.9,118.4,864.3,117.1,866.2C117.1,866.2,117.1,866.2,117.1,866.2z"/>
				<path class="st4" d="M128.7,832.6c0,0,37.4,26.6,17.2,62.4c-1.2,2.1-2.5,4.1-3.9,6c-16.7,25.7-46.1,31.3-67.9,15.8
					c-4.5-3.2-17.5-11.1,2.1-3.6c23.4,4.5,45.3-1.7,55.9-18.1s7.4-38.8-6.2-58.3C111.8,821.2,122.2,827.5,128.7,832.6z"/>
				<path class="st5" d="M112.8,910.6c-10.5,4.2-23.3,5.1-36.6,2.5c-2.8-1.1-5.6-2.1-8.5-2.9l-0.6-0.3c0,0,16.1-9.1,23.2-11.1
					C95.1,897.5,106.2,905.4,112.8,910.6z"/>
				<path class="st5" d="M119.4,828.6c1.9,2.9,4.1,5.7,6.5,8.2c7.5,10.7,11.8,22.3,12.5,33.2c-4.3-2.1-12.4-6.2-15.8-9.2
					C118.2,857,119.2,833,119.4,828.6z"/>
			</g>
			<g id="brwi">
				<path class="st1" d="M67.8,837.5c-5.2,14.3-1.3-8.2-1.3-8.2s3-8.8,13-15.2S72.9,823.2,67.8,837.5z"/>
				<path class="st1" d="M38.8,878.3c-6.3,12.9-0.4-8.1-0.4-8.1c3.1-5.6,7.9-10,13.8-12.6C62.3,853,45.1,865.4,38.8,878.3z"/>
			</g>
			<path id="nos" class="st1" d="M72.5,856.1L72.5,856.1c2.2-3.3,6.6-4.3,10-2.1l16.5,10.7c3.3,2.2,4.3,6.6,2.1,10l0,0
				c-2.2,3.3-6.6,4.3-10,2.1l-16.5-10.7C71.2,863.9,70.3,859.4,72.5,856.1z"/>
			<g id="okulary">
				<path class="st6" d="M96.7,809.4c1.2,1,1.9,2.6,0.8,3.4c-0.9,0.6-1.1,1.8-0.7,2.8c0,0.1,0.1,0.1,0.1,0.1
					c1.3,0.8,18.7,11.3,11.5,26c-1.8,3.8-6.6,12.4-13.6,13.6c-8.5,1.4-19.8-3.6-20.4-4.5c-1.9-3-4.9,0.1-4.9,0.1s-4.1,4.5-3.8,6.8
					c0.2,1.3,1.3,2.3,2.6,2.3c0,0,0,0,0.1,0c0.4,0.8,7.8,4.7,10.5,14.3c5.6,19.9-15.5,27.6-16.3,27.1l0,0c-0.4,0.1-8.8,1.2-14.6-2.9
					c-6-4.2-7.3-2.6-7.4-1.5c-0.1,0.8-2.2,2.2-3.5,1.3c-0.4-0.2-0.6-0.6-0.8-1c-0.2-0.5-0.3-1-0.3-1.5c-0.2-4.7,3.2-18.1,9.7-26.5
					c4-5.2,16.5-10.7,16.6-11.3c0.1-0.4-0.2-1.5,3.5-6.8c2.6-3.7,3.9-5.1,4.5-5.5l0,0c0.3-1.5,0.5-3,0.4-4.5
					c0.1-5.6,1.5-9.8,4.4-15.1c2.7-5.1,8.7-9.2,9.2-9.6l0,0c3.1-1.4,5.7-3.7,7.7-6.4c0.7-1.4,2.3-2,3.7-1.3
					C96.1,809,96.4,809.1,96.7,809.4z"/>
				<path class="st1" d="M95.7,808.8c-1.4-0.6-3.1,0-3.7,1.3c-2,2.8-4.6,4.9-7.7,6.4l0,0c-0.4,0.3-6.4,4.5-9.2,9.6
					c-2.9,5.3-4.3,9.5-4.4,15.1c0.1,1.5-0.1,3-0.4,4.5l0,0c-0.6,0.4-2,1.8-4.5,5.5c-3.6,5.2-3.4,6.4-3.5,6.8
					c-0.1,0.6-12.6,6.1-16.6,11.3c-6.5,8.4-9.9,21.8-9.7,26.5c0,0.5,0.1,1,0.3,1.5c0.1,0.4,0.4,0.8,0.8,1c1.3,0.9,3.4-0.5,3.5-1.3
					c0.1-1.1,1.4-2.7,7.4,1.5c5.8,4,14.1,2.9,14.6,2.9l0,0c0.9,0.6,21.9-7.1,16.3-27.1c-2.7-9.6-10-13.5-10.5-14.3c0,0,0,0-0.1,0
					c-1.3,0-2.4-1-2.6-2.3c-0.3-2.3,3.8-6.8,3.8-6.8s3-3.2,4.9-0.1c0.6,1,11.9,6,20.4,4.5c7-1.2,11.8-9.9,13.6-13.6
					c7.2-14.6-10.1-25.2-11.5-26c-0.1,0-0.1-0.1-0.1-0.1c-0.4-1-0.2-2.1,0.7-2.8c1.1-0.8,0.5-2.4-0.8-3.4
					C96.4,809.1,96.1,808.9,95.7,808.8z M72.3,867.3c15.2,19.4-5.3,33-13.7,32.7s-15.3-8.7-15.3-8.7
					C34.8,884.2,57.1,847.9,72.3,867.3z M104.4,845.4c-10.3,16.9-29.6,1.4-27.9,2.5l-0.2-0.1c0,0-8.5-7.6,1.4-22.1
					s20.7-5.7,20.7-5.7S114.8,828.5,104.4,845.4z"/>
				<path class="st1" d="M38.3,890.5L38.3,890.5c0.2-0.3,0.6-0.4,0.8-0.2l3.4,2.2c0.3,0.2,0.4,0.6,0.2,0.8h0
					c-0.2,0.3-0.6,0.4-0.8,0.2l-3.4-2.2C38.2,891.1,38.1,890.8,38.3,890.5z"/>
				<path class="st1" d="M39.6,892.1l1,0.7l-3.6,5.5c-0.4-0.2-0.6-0.6-0.8-1L39.6,892.1z"/>
				<path class="st1" d="M94.4,819L94.4,819c-0.2,0.3-0.5,0.3-0.7,0.2l-3.1-2c-0.3-0.2-0.3-0.5-0.2-0.7l0,0c0.2-0.3,0.5-0.3,0.7-0.2
					l3.1,2C94.5,818.4,94.6,818.8,94.4,819z"/>
				<path class="st1" d="M96.7,809.4l-3.5,5.5l-0.9-0.6l3.5-5.4C96.1,809,96.4,809.1,96.7,809.4z"/>
			</g>
			<g id="rece">
				<path class="st1" d="M270.5,1057.6L270.5,1057.6c2.3-4,1.1-9-2.6-11.6l-9.7-6.5c-3.5-2.3-8.2-1.4-10.5,2
					c-0.1,0.2-0.2,0.4-0.4,0.6l0,0c-2.3,4-1.1,9,2.6,11.6l9.7,6.5c3.5,2.3,8.2,1.5,10.5-2C270.2,1058,270.4,1057.8,270.5,1057.6z"/>
				<path class="st1" d="M256.7,1058.3L256.7,1058.3c1-1.1,1-2.8,0-3.9l-6.1-6.4c-0.9-1-2.5-1.1-3.5-0.2c-0.1,0.1-0.1,0.1-0.2,0.2
					l0,0c-1,1.1-1,2.8,0,3.9l6.1,6.4c0.9,1,2.5,1.1,3.5,0.2C256.5,1058.4,256.6,1058.4,256.7,1058.3z"/>
				<path class="st1" d="M255.3,853.6L255.3,853.6c2.5,4.6,1.7,10-1.6,12l-48.5,29.3c-3.4,2-8.1,0-10.6-4.6l0,0
					c-2.5-4.6-1.7-10,1.7-12l48.5-29.3C248.2,847,252.9,849,255.3,853.6z"/>
				<path class="st1" d="M250.5,1044.2L250.5,1044.2c2.5-4.5,1.2-10.2-3-13.1l-60.6-40.4c-3.9-2.7-9.2-1.6-11.9,2.3
					c-0.1,0.2-0.3,0.4-0.4,0.7l0,0c-2.5,4.5-1.2,10.2,3,13.1l60.6,40.4c3.9,2.7,9.2,1.6,11.9-2.3
					C250.2,1044.7,250.4,1044.5,250.5,1044.2z"/>
				<path class="st1" d="M187.7,1004.6L187.7,1004.6c-4.2,3.1-9.6,3.2-12.1,0.2l-36.4-43.4c-2.5-3-1.2-8,2.9-11.2l0,0
					c4.2-3.1,9.6-3.2,12.1-0.2l36.4,43.4C193.1,996.4,191.8,1001.4,187.7,1004.6z"/>
			</g>
		</g>
		<g id="me">
			<path id="body-2" class="st7" d="M491.3,734.8v104.1c0,38.9-24.9,70.5-55.6,70.5h-21.9c-30.7,0-55.6-31.5-55.6-70.5V734.8
				c-16-44.2,9.5-75.6,55.6-70.5h21.9C483.3,658.8,501.9,692.4,491.3,734.8z"/>
			<g id="spodnie-2">
				<rect x="440.8" y="860.1" class="st8" width="30.9" height="246.1"/>
				<rect x="378" y="860.1" class="st8" width="30.9" height="246.1"/>
				<path class="st7" d="M502,1107.2h-61.5c0-17.3,13.8-31.4,30.8-31.4S502,1089.8,502,1107.2z"/>
				<path class="st7" d="M408.8,1107.2h-61.5c0-17.3,13.8-31.4,30.8-31.4S408.8,1089.8,408.8,1107.2z"/>
				<path id="gacie-2" class="st8" d="M492.1,846.5v8.1c0,36-25,65.2-55.8,65.2h-21.9c-30.8,0-55.8-29.2-55.8-65.2v-8.1H492.1z"/>
			</g>
			<path id="szyja-2" class="st9" d="M426.1,553.7L426.1,553.7c11.4,0,20.7,9.3,20.7,20.7v95.5c0,11.4-9.3,20.7-20.7,20.7h0
				c-11.4,0-20.7-9.3-20.7-20.7v-95.5C405.4,562.9,414.7,553.7,426.1,553.7z"/>
			<g id="ucho2-3">
				<circle class="st10" cx="362.2" cy="563.3" r="17.3"/>
				<circle class="st9" cx="362.2" cy="563.4" r="11.1"/>
			</g>
			<g id="ucho2-4">
				<circle class="st10" cx="491" cy="563.3" r="17.3"/>
				<circle class="st9" cx="490.9" cy="563.4" r="11.1"/>
			</g>
			<g id="wlosy-2">
				<path class="st11" d="M497.8,518c-3.8,41.6-25.4,75.6-56.7,75.6s-45.6-35.9-56.6-75.6c-19-68,18.6-78.5,56.6-75.6
					C483.6,445.6,501.1,482.1,497.8,518z"/>
				<path class="st11" d="M457.6,584.1l-21.8,10.6c-25.5,12.4-56.7,1.5-69.8-24.3l-8-15.9c-14.1-33.4-11.9-69.7,22.4-69.1l21.8-10.6
					c25.5-12.4,56.7-1.5,69.8,24.3l8,16C493.1,540.8,483.1,571.7,457.6,584.1z"/>
			</g>
			<path id="twarz-2" class="st10" d="M425.6,652.3L425.6,652.3c-39.8,0-65.2-28.2-65.2-63.1v-45.4c-0.6-33.7,15.9-64.6,65.2-63.1
				l0,0c40.1-2.4,69.4,24.7,65.2,63.1v45.4C490.8,589.2,487.9,655.9,425.6,652.3z"/>
			<g id="usta-2">
				<path class="st12" d="M407,609c11,5.9,23.9,6.8,35.6,2.5c1.8-0.7,1-3.6-0.8-2.9c-10.9,4-23,3.2-33.3-2.2
					C406.8,605.5,405.3,608.1,407,609z"/>
				<path class="st12" d="M440.8,604.4c-0.2,2.1,0.1,4.2,0.9,6.1c0.7,1.1,1.7,2,3,2.4l0.8,0.3h0.1l-0.2-0.1l0.2,0.1
					c0.1,0.1,0.3,0.1,0.4,0.2c0.7,0.4,1.6,0.2,2.1-0.5c0.4-0.7,0.1-1.6-0.5-2c-0.5-0.3-1.1-0.5-1.6-0.7l-0.3-0.1c-0.1,0-0.3-0.1,0,0
					s0.1,0,0,0c-0.2-0.1-0.4-0.2-0.6-0.3c-0.1,0-0.2-0.1-0.3-0.2s0.3,0.3,0.1,0.1l-0.1-0.1l-0.2-0.2c-0.2-0.2,0.1,0.2,0.1,0.1
					c0-0.1-0.1-0.1-0.1-0.2c-0.1-0.1-0.1-0.2-0.2-0.3c0-0.1,0-0.1-0.1-0.2c0.2,0.4,0.1,0.2,0,0c-0.1-0.3-0.2-0.7-0.3-1.1
					c0-0.1,0-0.2,0-0.3s0,0.2,0,0.2c0-0.1,0-0.2,0-0.2c0-0.3,0-0.5-0.1-0.8c0-0.7,0-1.4,0-2.1c0-0.8-0.7-1.5-1.5-1.5
					C441.5,602.9,440.8,603.6,440.8,604.4L440.8,604.4z"/>
				<path class="st12" d="M402.7,611.3c4.3-0.8,7.9-4,9.1-8.2c0.2-0.8-0.2-1.6-1-1.9s-1.6,0.2-1.9,1c0,0,0,0.1,0,0.1
					c-0.1,0.2-0.1,0.4-0.2,0.7s-0.1,0.2-0.1,0.3c-0.1,0.4,0.1-0.3,0,0.1c-0.2,0.4-0.4,0.8-0.7,1.2c-0.1,0.2-0.2,0.4-0.4,0.6
					s0.2-0.2,0,0.1l-0.2,0.2c-0.3,0.4-0.6,0.7-1,1c-0.1,0.1-0.3,0.3-0.5,0.4c0.3-0.2,0,0-0.1,0l-0.3,0.2c-0.4,0.3-0.8,0.5-1.2,0.7
					l-0.3,0.1c0.2-0.1,0.1,0-0.1,0l-0.6,0.2c-0.4,0.1-0.9,0.2-1.3,0.3c-0.8,0.2-1.2,1.1-1,1.8c0.3,0.8,1.1,1.2,1.8,1L402.7,611.3z"
					/>
			</g>
			<g id="oko-3">
				<circle class="st7" cx="393.9" cy="544.2" r="14.4"/>
				<circle class="st13" cx="393.9" cy="544.2" r="10.2"/>
				<circle cx="393.9" cy="544.2" r="5"/>
				<circle class="st14" cx="396.5" cy="540" r="1.8"/>
				<circle class="st14" cx="398.4" cy="542.4" r="0.5"/>
			</g>
			<g id="oko-4">
				<circle class="st7" cx="457.8" cy="544.2" r="14.4"/>
				<circle class="st13" cx="457.8" cy="544.2" r="10.2"/>
				<circle cx="457.8" cy="544.2" r="5"/>
				<circle class="st14" cx="460.4" cy="540" r="1.8"/>
				<circle class="st14" cx="462.2" cy="542.4" r="0.5"/>
			</g>
			<g id="broda-2">
				<path class="st15" d="M421.9,620.9h4.7c2.9,0,5.2,2.3,5.2,5.2v0c0,2.9-2.3,5.2-5.2,5.2h-4.7c-2.9,0-5.2-2.3-5.2-5.2v0
					C416.7,623.3,419,620.9,421.9,620.9z"/>
				<path class="st16" d="M445.8,600.1l-40.8-1.4c-2.9-0.1-5.1-2.5-5.1-5.4l0-1.6c0.9-3.9,52.2-2.2,51.3,1.7v1.6
					C451.2,598,448.7,600.2,445.8,600.1C445.8,600.1,445.8,600.1,445.8,600.1z"/>
				<path class="st17" d="M490.9,588.9c0,0-2.6,60-56.3,63.2c-3.1,0.2-6.2,0.2-9.4,0c-40,0-67.1-28.3-65.6-63.2
					c0.3-7.2-0.2-27,5.5-0.3c11.7,28.9,34,48.5,59.6,48.5s47.8-19.5,59.5-48.3C491.4,562.4,491.8,578.2,490.9,588.9z"/>
				<path class="st18" d="M394,627c-12.1-8.5-22.2-21.9-28.8-38.3c-0.7-3.9-1.7-7.7-2.9-11.4c0-0.5,0-0.9,0-0.9s21.4,11.2,28.6,17.6
					C395.8,598.3,395,616.1,394,627z"/>
				<path class="st18" d="M488.6,575.9c-1,2-2.5,6-4.3,13c-6.4,15.8-16,28.8-27.6,37.3c-0.8-6.2-2.1-18-1.2-23.9
					C456.6,594.9,483.6,578.8,488.6,575.9z"/>
			</g>
			<g id="brwi-2">
				<path class="st11" d="M442.2,525.6c-19.3,4.5,8.1-7.2,8.1-7.2s11.8-3,25.9,3.4S461.6,521.1,442.2,525.6z"/>
				<path class="st11" d="M376.9,522.8c-18.6,2.2,8.6-6.2,8.6-6.2s11.4-1.6,23.6,6.2S395.5,520.5,376.9,522.8z"/>
			</g>
			<path id="nos-2" class="st9" d="M425.1,544L425.1,544c5.2,0,9.4,4.2,9.4,9.4V579c0,5.2-4.2,9.4-9.4,9.4h0c-5.2,0-9.4-4.2-9.4-9.4
				v-25.7C415.6,548.2,419.9,544,425.1,544z"/>
			<g id="okulary-2">
				<path class="st19" d="M493.6,537.4c-0.2,2.1-1.5,3.9-3.2,3.3c-1.3-0.5-2.8,0-3.5,1.2c0,0.1-0.1,0.2-0.1,0.2
					c0.1,2,0.9,28.6-20.3,31c-5.4,0.6-18.3,1.6-24.6-5.2c-7.6-8.3-10.1-24.2-9.5-25.6c2-4.3-3.6-5.2-3.6-5.2s-7.9-1.3-10.2,0.7
					c-1.3,1.1-1.6,3-0.7,4.5c0,0,0.1,0,0,0.1c-0.5,1.1,0.4,11.9-8.2,21.6c-17.9,20.2-41.3,2.7-41.3,1.3l0,0c-0.4-0.4-7.5-8.8-7.2-18
					c0.3-9.5-2.3-9.8-3.6-9.2c-0.9,0.5-4-0.9-3.9-3c0-0.6,0.2-1.1,0.6-1.6c0.4-0.5,0.9-1,1.5-1.4c5-3.6,22.1-9.3,36-8.2
					c8.5,0.7,23.5,10.5,24.2,10.2c0.5-0.2,1.6-1.2,9.9-1c5.9,0.2,8.4,0.7,9.2,1.1l0,0c1.8-0.7,3.6-1.6,5.2-2.7
					c6.2-3.9,11.8-5.2,19.7-5.9c7.5-0.6,16.3,3,17,3.3l0,0c0.5,0.3,6.2,3.9,12.5,3.9c2.6,0,3.8,1.5,4.1,3.2
					C493.6,536.4,493.6,536.9,493.6,537.4z"/>
				<path class="st20" d="M493.5,535.9c-0.3-1.7-1.5-3.2-4.1-3.2c-6.3,0-12-3.6-12.5-3.9l0,0c-0.7-0.2-9.5-3.9-17-3.3
					c-7.9,0.7-13.4,2-19.7,5.9c-1.6,1.1-3.3,2-5.2,2.7l0,0c-0.9-0.4-3.3-0.9-9.2-1.1c-8.3-0.2-9.5,0.8-9.9,1
					c-0.7,0.3-15.7-9.5-24.2-10.2c-13.8-1.1-31,4.6-36,8.2c-0.6,0.4-1,0.8-1.5,1.4c-0.4,0.4-0.6,1-0.6,1.6c0,2.1,3,3.4,3.9,3
					c1.3-0.7,3.9-0.3,3.6,9.2c-0.3,9.2,6.8,17.6,7.2,18l0,0c0,1.3,23.4,18.9,41.3-1.3c8.6-9.7,7.6-20.6,8.2-21.6c0,0,0,0,0-0.1
					c-0.9-1.5-0.6-3.4,0.7-4.5c2.3-2,10.2-0.7,10.2-0.7s5.6,1,3.6,5.2c-0.6,1.4,1.9,17.3,9.5,25.6c6.3,6.9,19.2,5.9,24.6,5.2
					c21.2-2.5,20.4-29,20.3-31c0-0.1,0-0.2,0.1-0.2c0.8-1.2,2.2-1.7,3.5-1.2c1.6,0.7,3-1.2,3.2-3.3
					C493.7,536.9,493.6,536.4,493.5,535.9z M412.7,551.8c-10.5,30.5-40,17.7-45.6,8.2s-1.3-23-1.3-23
					C367.5,522.6,423.2,521.3,412.7,551.8z M459.6,571.5c-25.9,0.7-22.6-31.5-22.6-28.8v-0.3c0,0,2.3-14.8,25.2-14.1
					s21,18.7,21,18.7S485.5,570.8,459.6,571.5z"/>
				<path class="st21" d="M362.9,530.9h0.4c0.3,0,0.6,0.3,0.6,0.6v5.6c0,0.3-0.3,0.6-0.6,0.6h-0.4c-0.3,0-0.6-0.3-0.6-0.6v-5.6
					C362.2,531.2,362.5,530.9,362.9,530.9z"/>
				<path class="st21" d="M362.2,533.5v1.6h-8.6c0-0.6,0.2-1.1,0.6-1.6H362.2z"/>
				<path class="st21" d="M485,539.8h-0.2c-0.3,0-0.6-0.3-0.6-0.6v-5.1c0-0.3,0.3-0.6,0.6-0.6h0.2c0.3,0,0.6,0.3,0.6,0.6v5.1
					C485.6,539.5,485.3,539.8,485,539.8z"/>
				<path class="st21" d="M493.6,537.4h-8.5v-1.4h8.5C493.6,536.4,493.6,536.9,493.6,537.4z"/>
			</g>
			<g id="rece-2">
				<path class="st10" d="M328,886.5L328,886.5c3,0.2,5.6-1.9,6.1-4.8l3-20.6c0.4-2.7-1.5-5.3-4.2-5.7c-0.1,0-0.2,0-0.4,0l0,0
					c-3-0.2-5.6,1.9-6.1,4.8l-3,20.6c-0.4,2.7,1.5,5.3,4.2,5.7C327.8,886.5,327.9,886.5,328,886.5z"/>
				<path class="st10" d="M326,898.8L326,898.8c6,0.4,11.3-3.7,12.2-9.7l2.2-15.1c0.8-5.4-2.9-10.5-8.3-11.3c-0.3,0-0.6-0.1-0.9-0.1
					l0,0c-6-0.4-11.3,3.8-12.2,9.7l-2.2,15.1c-0.8,5.4,2.9,10.5,8.3,11.3C325.4,898.8,325.7,898.8,326,898.8z"/>
				<path class="st9" d="M317.3,882.9L317.3,882.9c1.9,0.6,3.8-0.4,4.5-2.2l4.1-10.8c0.7-1.6-0.1-3.5-1.8-4.2
					c-0.1,0-0.2-0.1-0.2-0.1l0,0c-1.9-0.5-3.9,0.4-4.6,2.2l-4.1,10.8c-0.7,1.7,0.1,3.5,1.8,4.2C317.2,882.9,317.2,882.9,317.3,882.9
					z"/>
				<path class="st7" d="M560.2,731.2L560.2,731.2c-2.4,6.4-8.3,10.3-13.2,8.7l-70.6-22.2c-4.9-1.5-7-8-4.6-14.4l0,0
					c2.4-6.4,8.3-10.3,13.2-8.8l70.6,22.2C560.5,718.4,562.5,724.8,560.2,731.2z"/>
				<path class="st7" d="M330.5,867.7L330.5,867.7c6.7,0.5,12.8-4.2,13.8-10.9l13.6-94.2c0.9-6.1-3.3-11.8-9.4-12.8
					c-0.3-0.1-0.7-0.1-1-0.1l0,0c-6.7-0.5-12.8,4.2-13.8,10.9l-13.6,94.2c-0.9,6.1,3.3,11.8,9.4,12.8
					C329.8,867.7,330.1,867.7,330.5,867.7z"/>
				<path class="st7" d="M341.7,772.8L341.7,772.8c-6.3-2.7-9.9-8.8-8.1-13.6l25.8-69.4c1.8-4.8,8.3-6.6,14.6-3.9l0,0
					c6.2,2.7,9.9,8.8,8.1,13.6l-25.8,69.4C354.5,773.7,348,775.5,341.7,772.8z"/>
			</g>
		</g>
	</g>
</g>
</svg>
