<svg xmlns="http://www.w3.org/2000/svg" viewBox="0 0 1843.99 782"><defs><style>.cls-1,.cls-6{fill:#fff;}.cls-2{fill:#f1a597;}.cls-3{fill:#f7ccb1;}.cls-4,.cls-7,.cls-9{fill:#231812;}.cls-5{fill:#3e291c;}.cls-6,.cls-8{opacity:0.65;}.cls-7{opacity:0.5;}.cls-10,.cls-8{fill:#573c2f;}.cls-9{opacity:0.75;}.cls-10{opacity:0.52;}.cls-11{fill:#0487a5;opacity:0.2;}.cls-12{stroke:#000;stroke-miterlimit:10;stroke-width:0.25px;}.cls-13{fill:#dcb100;}.cls-14{fill:#754c24;}.cls-15{fill:#191a1e;}</style></defs><title>Zasób 28</title><g id="Warstwa_2" data-name="Warstwa 2"><g id="objects"><g id="me"><path id="body" class="cls-1" d="M997.92,536.42V640.55c0,38.91-24.88,70.45-55.58,70.45H920.47c-30.7,0-55.58-31.54-55.58-70.45V536.42c-15.95-44.23,9.54-75.58,55.58-70.46h21.87C989.88,460.48,1008.48,494.07,997.92,536.42Z"/><rect id="szyja" class="cls-2" x="912.04" y="355.33" width="41.35" height="136.88" rx="20.68"/><g id="ucho2"><circle class="cls-3" cx="868.86" cy="365.01" r="17.27"/><circle class="cls-2" cx="868.79" cy="365.08" r="11.06"/></g><g id="ucho2-2" data-name="ucho2"><circle class="cls-3" cx="997.62" cy="365.01" r="17.27"/><circle class="cls-2" cx="997.55" cy="365.08" r="11.06"/></g><g id="wlosy"><path class="cls-4" d="M1004.43,319.63c-3.84,41.59-25.37,75.62-56.66,75.62s-45.56-35.88-56.66-75.62c-19-68,18.58-78.54,56.66-75.62C990.22,247.26,1007.73,283.76,1004.43,319.63Z"/><path class="cls-4" d="M964.24,385.79l-21.76,10.58c-25.46,12.39-56.73,1.51-69.83-24.3l-8.08-15.91c-14.06-33.4-11.91-69.7,22.38-69.15l21.76-10.59c25.46-12.39,56.73-1.51,69.83,24.3l8.08,15.91C999.72,342.44,989.7,373.4,964.24,385.79Z"/></g><path id="twarz" class="cls-3" d="M932.19,454h0C892.41,454,867,425.75,867,390.91V345.55c-.56-33.73,15.91-64.66,65.17-63.1h0c40.07-2.36,69.37,24.72,65.17,63.1v45.36S994.48,457.55,932.19,454Z"/><g id="oko"><circle class="cls-1" cx="900.52" cy="345.91" r="14.39"/><circle class="cls-5" cx="900.52" cy="345.91" r="10.21"/><circle cx="900.52" cy="345.91" r="4.97"/><circle class="cls-6" cx="903.14" cy="341.72" r="1.83"/><circle class="cls-6" cx="904.97" cy="344.08" r="0.52"/></g><g id="oko-2" data-name="oko"><circle class="cls-1" cx="964.38" cy="345.91" r="14.39"/><circle class="cls-5" cx="964.38" cy="345.91" r="10.21"/><circle cx="964.38" cy="345.91" r="4.97"/><circle class="cls-6" cx="967" cy="341.72" r="1.83"/><circle class="cls-6" cx="968.83" cy="344.08" r="0.52"/></g><g id="broda"><rect class="cls-7" x="923.29" y="422.59" width="15.18" height="10.47" rx="5.23"/><path class="cls-8" d="M952.43,401.81l-40.8-1.36a5.25,5.25,0,0,1-5.06-5.41l0-1.59c.91-3.94,52.17-2.22,51.27,1.71l0,1.59A5.26,5.26,0,0,1,952.43,401.81Z"/><path class="cls-9" d="M997.52,390.61s-2.61,60-56.26,63.25a78.78,78.78,0,0,1-9.35,0c-40,0-67.08-28.34-65.61-63.25.3-7.24-.24-27,5.48-.3,11.68,28.94,34,48.5,59.6,48.5s47.8-19.45,59.5-48.25C998,364,998.45,379.82,997.52,390.61Z"/><path class="cls-10" d="M900.59,428.66c-12.14-8.53-22.19-21.93-28.81-38.35a101.49,101.49,0,0,0-2.9-11.41c0-.56,0-.86,0-.86s21.47,11.19,28.65,17.58C902.39,400,901.6,417.73,900.59,428.66Z"/><path class="cls-10" d="M995.19,377.59c-1.05,2-2.45,6-4.31,13-6.42,15.8-16,28.79-27.59,37.29-.79-6.16-2.06-18-1.17-23.86C963.24,396.55,990.21,380.49,995.19,377.59Z"/></g><g id="brwi"><path class="cls-4" d="M948.84,327.28c-19.33,4.51,8.1-7.24,8.1-7.24s11.75-3,25.89,3.4S968.17,322.78,948.84,327.28Z"/><path class="cls-4" d="M883.48,324.45c-18.65,2.24,8.61-6.15,8.61-6.15s11.37-1.62,23.58,6.17S902.13,322.21,883.48,324.45Z"/></g><rect id="nos" class="cls-2" x="922.25" y="345.65" width="18.84" height="44.49" rx="9.42"/><g id="okulary"><path class="cls-11" d="M1000.21,339c-.2,2.07-1.55,3.93-3.19,3.28a3,3,0,0,0-3.53,1.2.4.4,0,0,0-.07.24c.09,2,.85,28.55-20.33,31-5.43.63-18.31,1.62-24.59-5.25-7.61-8.31-10.14-24.21-9.51-25.57,2-4.27-3.61-5.25-3.61-5.25s-7.87-1.31-10.16.66a3.55,3.55,0,0,0-.7,4.52c0,.05.07,0,0,.07-.55,1.07.4,11.93-8.2,21.64-17.93,20.25-41.27,2.67-41.29,1.32l0,0c-.39-.44-7.52-8.77-7.2-18,.33-9.51-2.3-9.84-3.61-9.19-.92.46-4-.86-3.93-2.94a2.67,2.67,0,0,1,.61-1.57,6.24,6.24,0,0,1,1.45-1.37c5-3.6,22.15-9.34,36-8.21,8.49.69,23.48,10.45,24.2,10.19.45-.16,1.58-1.25,9.9-1,5.93.17,8.36.68,9.23,1.06h0a22.64,22.64,0,0,0,5.19-2.7c6.23-3.94,11.8-5.25,19.67-5.9,7.55-.63,16.34,3,17,3.26h0c.49.33,6.19,3.94,12.46,3.94,2.6,0,3.81,1.46,4.11,3.15A5,5,0,0,1,1000.21,339Z"/><path class="cls-12" d="M1000.15,337.6c-.3-1.69-1.51-3.15-4.11-3.15-6.27,0-12-3.61-12.46-3.94h0c-.67-.24-9.46-3.89-17-3.26-7.87.65-13.44,2-19.67,5.9a22.64,22.64,0,0,1-5.19,2.7h0c-.87-.38-3.3-.89-9.23-1.06-8.32-.24-9.45.85-9.9,1-.72.26-15.71-9.5-24.2-10.19-13.82-1.13-31,4.61-36,8.21a6.24,6.24,0,0,0-1.45,1.37,2.67,2.67,0,0,0-.61,1.57c0,2.08,3,3.4,3.93,2.94,1.31-.65,3.94-.32,3.61,9.19-.32,9.24,6.81,17.57,7.2,18l0,0c0,1.35,23.36,18.93,41.29-1.32C925,355.89,924,345,924.56,344c0,0,0,0,0-.07a3.55,3.55,0,0,1,.7-4.52c2.29-2,10.16-.66,10.16-.66s5.57,1,3.61,5.25c-.63,1.36,1.9,17.26,9.51,25.57,6.28,6.87,19.16,5.88,24.59,5.25,21.18-2.47,20.42-29,20.33-31a.4.4,0,0,1,.07-.24,3,3,0,0,1,3.53-1.2c1.64.65,3-1.21,3.19-3.28A5,5,0,0,0,1000.15,337.6Zm-80.83,15.87c-10.49,30.49-40,17.7-45.58,8.19s-1.31-23-1.31-23C874.07,324.28,929.81,323,919.32,353.47Zm46.88,19.67c-25.9.66-22.62-31.48-22.62-28.86V344s2.29-14.76,25.25-14.1,21,18.69,21,18.69S992.1,372.48,966.2,373.14Z"/><rect class="cls-13" x="868.86" y="332.56" width="1.57" height="6.8" rx="0.6"/><path class="cls-13" d="M868.86,335.18v1.57H860.3a2.67,2.67,0,0,1,.61-1.57Z"/><rect class="cls-13" x="990.82" y="335.18" width="1.41" height="6.28" rx="0.6" transform="translate(1983.04 676.64) rotate(-180)"/><path class="cls-13" d="M1000.21,339H991.7V337.6h8.45A5,5,0,0,1,1000.21,339Z"/></g><path class="cls-14" d="M911.51,413.58c2.89.85,5.41,2.09,8.5,1.64s6-1.47,9.13-1.64c6.26-.33,12.44,1,18.52,2.31,1.88.4,2.69-2.49.8-2.9-6-1.3-12.18-2.61-18.38-2.44a40.4,40.4,0,0,0-8.81,1.36,9.26,9.26,0,0,1-4.7.19c-1.45-.37-2.82-1-4.26-1.42-1.86-.54-2.65,2.35-.8,2.9Z"/><path class="cls-14" d="M910.09,407.83c0,.19,0,.38-.07.56s-.06.48,0,.16l-.15,1c-.11.6-.23,1.19-.37,1.79a31,31,0,0,1-1.12,3.63,1.5,1.5,0,0,0,1,1.84,1.53,1.53,0,0,0,1.84-1,31.23,31.23,0,0,0,1.83-7.92,1.5,1.5,0,0,0-3,0Z"/><path class="cls-14" d="M948.8,411.74l-.77,7.05a1.51,1.51,0,0,0,1.5,1.5,1.54,1.54,0,0,0,1.5-1.5l.77-7.05a1.5,1.5,0,0,0-1.5-1.5,1.54,1.54,0,0,0-1.5,1.5Z"/></g><path class="cls-15" d="M509.73,476h78.83v91.14a30,30,0,0,1-8.15,21Q572.25,597,557,597h-47.3V773H367.84V596.8H59.91a44.22,44.22,0,0,1-27.6-9.46Q20,577.91,16.81,563.7L0,483.34,354.19,7.5H509.73ZM367.84,276.44q0-18.37,1.32-39.64t3.95-43.86L170.78,476H367.84Z"/><path class="cls-15" d="M1213.12,390.73q0,100.32-21.55,173.85t-59.65,121.84q-38.12,48.33-90.38,72T928.29,782q-61,0-112.72-23.62t-89.61-72q-37.82-48.33-59.1-121.84T645.57,390.73q0-100.3,21.29-173.82T726,95.06q37.83-48.33,89.61-71.68T928.29,0q61,0,113.25,23.38t90.38,71.68q38.1,48.33,59.65,121.85T1213.12,390.73Zm-168.16,0q0-79.22-10-129.85t-26.55-79.5q-16.54-28.86-37.57-39.61T928.29,131q-21.56,0-42.31,10.77T849.2,181.38q-16,28.86-25.74,79.5t-9.71,129.85q0,79.78,9.71,130.15t25.74,79.48q16,29.13,36.78,39.89T928.29,651q21.54,0,42.57-10.75t37.57-39.89Q1025,571.25,1035,520.88T1045,390.73Z"/><path class="cls-15" d="M1765.16,476H1844v91.14a30,30,0,0,1-8.15,21q-8.16,8.91-23.38,8.91h-47.3V773H1623.27V596.8H1315.34a44.22,44.22,0,0,1-27.6-9.46q-12.35-9.44-15.5-23.64l-16.81-80.36L1609.62,7.5h155.54ZM1623.27,276.44q0-18.37,1.32-39.64t4-43.86L1426.21,476h197.06Z"/><g id="rece"><path class="cls-1" d="M1034.6,573.84h0c-5.89,3.41-12.94,2.66-15.75-1.67L978.55,510c-2.81-4.33-.31-10.61,5.58-14h0c5.88-3.41,12.94-2.66,15.74,1.67l40.31,62.13C1043,564.15,1040.49,570.42,1034.6,573.84Z"/><path class="cls-1" d="M738.77,578.7h0a13,13,0,0,0,13.59,11.2l94.9-6.66a11.2,11.2,0,0,0,10.37-12.88h0a13,13,0,0,0-13.58-11.2l-94.91,6.66A11.21,11.21,0,0,0,738.77,578.7Z"/><path class="cls-1" d="M1123.73,516.11h0a13,13,0,0,1-6.11,16.51l-85.36,42a11.21,11.21,0,0,1-15.45-5.92h0a13,13,0,0,1,6.11-16.51l85.37-42A11.19,11.19,0,0,1,1123.73,516.11Z"/><path class="cls-1" d="M840.59,580.59h0c-5.92-3.36-8.85-9.82-6.53-14.43L867.29,500c2.32-4.62,9-5.63,14.92-2.28h0c5.92,3.36,8.84,9.82,6.52,14.43L855.5,578.31C853.18,582.93,846.51,584,840.59,580.59Z"/><path class="cls-3" d="M1140.81,508h0a5.76,5.76,0,0,1-2.7,7.3l-18.65,9.18a5,5,0,0,1-6.83-2.62h0a5.76,5.76,0,0,1,2.7-7.3l18.65-9.18A5,5,0,0,1,1140.81,508Z"/><path class="cls-3" d="M1151.91,502.25h0a11.53,11.53,0,0,1-5.4,14.61l-13.68,6.72a9.9,9.9,0,0,1-13.66-5.23h0a11.53,11.53,0,0,1,5.4-14.61l13.68-6.72A9.9,9.9,0,0,1,1151.91,502.25Z"/><path class="cls-2" d="M1134.14,498.93h0a3.74,3.74,0,0,1-.73,5l-9,7.28a3.23,3.23,0,0,1-4.73-.61h0a3.74,3.74,0,0,1,.73-5l9-7.28A3.23,3.23,0,0,1,1134.14,498.93Z"/><path class="cls-3" d="M720.36,574.45h0a5.77,5.77,0,0,0,4.93,6l20.62,2.59a5,5,0,0,0,5.61-4.7h0a5.77,5.77,0,0,0-4.93-6L726,569.75A5,5,0,0,0,720.36,574.45Z"/><path class="cls-3" d="M708,572.66h0a11.52,11.52,0,0,0,9.87,12.05l15.12,1.9a9.9,9.9,0,0,0,11.21-9.4h0a11.53,11.53,0,0,0-9.87-12.05l-15.12-1.9A9.91,9.91,0,0,0,708,572.66Z"/><path class="cls-2" d="M723.72,563.73h0a3.75,3.75,0,0,0,2.32,4.51l10.88,4a3.24,3.24,0,0,0,4.28-2.12h0a3.75,3.75,0,0,0-2.32-4.51L728,561.62A3.23,3.23,0,0,0,723.72,563.73Z"/></g></g></g></svg>