<svg xmlns="http://www.w3.org/2000/svg" viewBox="0 0 546.47 708.13"><defs><style>.cls-1{opacity:0.9;}.cls-10,.cls-2{fill:#fff;}.cls-3{fill:#e2e2e2;}.cls-4{fill:#e07d19;}.cls-5{fill:#f1a597;}.cls-6{fill:#f7ccb1;}.cls-11,.cls-13,.cls-7{fill:#231812;}.cls-8{fill:#754c24;}.cls-9{fill:#3e291c;}.cls-10,.cls-12{opacity:0.65;}.cls-11{opacity:0.5;}.cls-12,.cls-14{fill:#573c2f;}.cls-13{opacity:0.75;}.cls-14{opacity:0.52;}.cls-15{fill:#0487a5;opacity:0.2;}.cls-16{stroke:#000;stroke-miterlimit:10;stroke-width:0.25px;}.cls-17{fill:#dcb100;}</style></defs><title>Zasób 16</title><g id="Warstwa_2" data-name="Warstwa 2"><g id="objects"><g class="cls-1"><rect class="cls-2" width="546.47" height="708.13"/><rect class="cls-3" x="52.83" y="34.7" width="153.77" height="186.89"/><rect class="cls-3" x="55.2" y="259.44" width="127.75" height="12.14"/><rect class="cls-3" x="55.2" y="289.72" width="127.75" height="12.14"/><rect class="cls-3" x="55.2" y="320" width="127.75" height="12.14"/><rect class="cls-3" x="55.2" y="350.28" width="127.75" height="12.14"/><rect class="cls-3" x="55.2" y="380.56" width="127.75" height="12.14"/><rect class="cls-3" x="213.22" y="259.68" width="296.98" height="12.14"/><rect class="cls-3" x="213.22" y="289.96" width="296.98" height="12.14"/><rect class="cls-3" x="213.22" y="320.24" width="296.98" height="12.14"/><rect class="cls-3" x="213.22" y="350.53" width="296.98" height="12.14"/><rect class="cls-3" x="213.22" y="380.81" width="296.98" height="12.14"/><rect class="cls-3" x="242.88" y="96.2" width="267.32" height="10.88"/><rect class="cls-3" x="242.88" y="123.65" width="267.32" height="10.88"/><rect class="cls-3" x="242.88" y="151.09" width="267.32" height="10.88"/><rect class="cls-3" x="242.88" y="178.53" width="267.32" height="10.88"/><rect class="cls-3" x="242.88" y="205.97" width="267.32" height="10.88"/><rect class="cls-3" x="51.26" y="540.16" width="458.94" height="10.84"/><rect class="cls-3" x="51.26" y="572.3" width="458.94" height="10.84"/><rect class="cls-3" x="51.26" y="604.43" width="458.94" height="10.84"/><rect class="cls-3" x="51.26" y="636.56" width="458.94" height="10.84"/><rect class="cls-3" x="143.23" y="425.53" width="104.09" height="15.77"/><circle class="cls-4" cx="111.98" cy="433.71" r="10.25"/><rect class="cls-3" x="340.37" y="425.53" width="104.09" height="15.77"/><circle class="cls-4" cx="309.12" cy="433.71" r="10.25"/><rect class="cls-3" x="340.37" y="485.46" width="104.09" height="15.77"/><circle class="cls-4" cx="309.12" cy="493.64" r="10.25"/><rect class="cls-3" x="143.23" y="485.46" width="104.09" height="15.77"/><circle class="cls-4" cx="111.98" cy="493.64" r="10.25"/><g id="me"><path class="cls-2" d="M167.37,221.59h-74A39.11,39.11,0,0,1,91,205.5c1.15-14.09,12-23.19,28.7-22.94,1.5,0,3.07.11,4.67.29h12.14a46.69,46.69,0,0,1,6.13-.31c16,.25,24.74,9.75,26.11,23.34A46.89,46.89,0,0,1,167.37,221.59Z"/><rect id="szyja" class="cls-5" x="119.65" y="121.48" width="22.94" height="75.93" rx="11.2"/><g id="ucho2"><circle class="cls-6" cx="95.69" cy="126.85" r="9.58"/><circle class="cls-5" cx="95.65" cy="126.89" r="6.14"/></g><g id="ucho2-2" data-name="ucho2"><circle class="cls-6" cx="167.13" cy="126.85" r="9.58"/><circle class="cls-5" cx="167.09" cy="126.89" r="6.14"/></g><g id="wlosy"><path class="cls-7" d="M170.9,101.67c-2.13,23.08-14.07,42-31.43,42S114.2,123.72,108,101.67c-10.54-37.75,10.3-43.56,31.43-41.95C163,61.53,172.73,81.78,170.9,101.67Z"/><path class="cls-7" d="M148.61,138.37l-12.08,5.88c-14.12,6.87-31.46.83-38.73-13.48l-4.48-8.83c-7.8-18.53-6.61-38.67,12.41-38.36L117.8,77.7c14.13-6.87,31.47-.83,38.74,13.49L161,100C168.29,114.33,162.73,131.5,148.61,138.37Z"/></g><path id="twarz" class="cls-6" d="M130.83,176.22h0c-22.07,0-36.15-15.67-36.15-35V116.05c-.31-18.71,8.82-35.86,36.15-35h0c22.23-1.31,38.48,13.72,36.15,35v25.17S165.38,178.18,130.83,176.22Z"/><g id="usta"><path class="cls-8" d="M120.19,152.76a25,25,0,0,0,20.28,1.48c1.79-.67,1-3.57-.8-2.9a22,22,0,0,1-18-1.17c-1.7-.91-3.22,1.68-1.51,2.59Z"/><path class="cls-8" d="M138.61,149.64c-.07,1.88.15,4.19,2.08,5.1.36.17.74.3,1.11.45l-.36-.15.37.18a1.5,1.5,0,1,0,1.52-2.59c-.43-.23-.89-.38-1.33-.57l.36.15a2.27,2.27,0,0,1-.61-.34l.3.24a1.94,1.94,0,0,1-.32-.32l.24.3a2,2,0,0,1-.26-.45l.15.36a3.61,3.61,0,0,1-.24-1l0,.4a10.6,10.6,0,0,1-.06-1.78,1.5,1.5,0,0,0-3,0Z"/><path class="cls-8" d="M118.29,154.1a7,7,0,0,0,5.5-5,1.5,1.5,0,1,0-2.9-.8,5.67,5.67,0,0,1-.22.66l.15-.36a5.58,5.58,0,0,1-.71,1.2l.24-.3a5.63,5.63,0,0,1-1,1l.31-.23a5.79,5.79,0,0,1-1.2.7l.35-.15a5.09,5.09,0,0,1-1.28.37,1.5,1.5,0,0,0-1,1.84,1.46,1.46,0,0,0,.69.9,1.75,1.75,0,0,0,1.15.15Z"/></g><g id="oko"><circle class="cls-2" cx="113.26" cy="116.25" r="7.99"/><circle class="cls-9" cx="113.26" cy="116.25" r="5.66"/><circle cx="113.26" cy="116.25" r="2.76"/><circle class="cls-10" cx="114.71" cy="113.93" r="1.02"/><circle class="cls-10" cx="115.73" cy="115.24" r="0.29"/></g><g id="oko-2" data-name="oko"><circle class="cls-2" cx="148.69" cy="116.25" r="7.99"/><circle class="cls-9" cx="148.69" cy="116.25" r="5.66"/><circle cx="148.69" cy="116.25" r="2.76"/><circle class="cls-10" cx="150.14" cy="113.93" r="1.02"/><circle class="cls-10" cx="151.15" cy="115.24" r="0.29"/></g><g id="broda"><rect class="cls-11" x="125.89" y="158.79" width="8.42" height="5.81" rx="2.84"/><path class="cls-12" d="M142.06,147.26l-22.64-.75a2.92,2.92,0,0,1-2.81-3l0-.88c.51-2.19,29-1.24,28.44,1l0,.88A2.92,2.92,0,0,1,142.06,147.26Z"/><path class="cls-13" d="M167.07,141.05s-1.45,33.29-31.21,35.09a44.9,44.9,0,0,1-5.19,0c-22.22,0-37.21-15.72-36.39-35.09.16-4-.14-15,3-.16,6.47,16.05,18.85,26.9,33.06,26.9s26.51-10.79,33-26.77C167.33,126.3,167.58,135.06,167.07,141.05Z"/><path class="cls-14" d="M113.3,162.16c-6.73-4.73-12.31-12.17-16-21.27a58.29,58.29,0,0,0-1.61-6.34c0-.3,0-.47,0-.47s11.91,6.2,15.9,9.75C114.3,146.24,113.86,156.1,113.3,162.16Z"/><path class="cls-14" d="M165.78,133.83a40.09,40.09,0,0,0-2.39,7.19c-3.56,8.77-8.89,16-15.31,20.69-.44-3.42-1.14-10-.65-13.24C148.05,144.35,163,135.44,165.78,133.83Z"/></g><g id="brwi"><path class="cls-7" d="M140.07,105.92c-10.73,2.5,4.49-4,4.49-4a23.5,23.5,0,0,1,14.36,1.89C166.76,107.34,150.79,103.42,140.07,105.92Z"/><path class="cls-7" d="M103.81,104.35c-10.35,1.24,4.77-3.41,4.77-3.41a20.92,20.92,0,0,1,13.08,3.42C128.44,108.68,114.15,103.11,103.81,104.35Z"/></g><rect id="nos" class="cls-5" x="125.31" y="116.11" width="10.45" height="24.68" rx="5.1"/><g id="okulary"><path class="cls-15" d="M168.56,112.44c-.11,1.15-.86,2.18-1.77,1.82a1.66,1.66,0,0,0-2,.67.19.19,0,0,0,0,.13c0,1.11.46,15.84-11.28,17.21-3,.35-10.16.9-13.65-2.91-4.22-4.61-5.62-13.44-5.27-14.19,1.09-2.36-2-2.91-2-2.91s-4.37-.73-5.64.37a2,2,0,0,0-.39,2.5s0,0,0,0c-.31.59.22,6.62-4.55,12-10,11.23-22.9,1.48-22.91.73l0,0c-.21-.24-4.17-4.86-4-10s-1.27-5.46-2-5.09c-.51.25-2.2-.48-2.18-1.64a1.53,1.53,0,0,1,.33-.87,3.54,3.54,0,0,1,.81-.76c2.78-2,12.29-5.18,20-4.55,4.71.38,13,5.79,13.43,5.65.25-.09.88-.69,5.49-.56,3.29.09,4.64.38,5.12.59h0a12.22,12.22,0,0,0,2.89-1.5c3.45-2.18,6.54-2.91,10.91-3.28,4.19-.34,9.06,1.68,9.43,1.81h0a14.22,14.22,0,0,0,6.92,2.19,2.08,2.08,0,0,1,2.28,1.74A2.7,2.7,0,0,1,168.56,112.44Z"/><path class="cls-16" d="M168.53,111.64c0-.07,0-.15-.05-.22s0,0,0,0l-.05-.14s0,0,0,0a.84.84,0,0,0-.06-.14s0,0,0,0a.42.42,0,0,0-.09-.16,1.38,1.38,0,0,0-.32-.41l0,0h0s-.05,0-.06-.06l-.07,0-.05,0-.1-.06a1.36,1.36,0,0,0-.24-.13l-.24-.09a3,3,0,0,0-.89-.13c-.21,0-.43,0-.64,0a4.87,4.87,0,0,1-.55-.06,2,2,0,0,1-.24,0h-.11l-.09,0h-.13l-.5-.1h0l-.38-.09c-.15,0-.29-.08-.44-.12-.31-.09-.62-.2-.91-.3-.14-.05-.27-.09-.4-.15-.51-.2-1-.41-1.34-.59l-.46-.25a3.9,3.9,0,0,1-.38-.22l-.18-.11-.15-.09h0c-.37-.13-5.24-2.15-9.44-1.8-4.36.36-7.45,1.08-10.9,3.27a12.22,12.22,0,0,1-2.89,1.5,5.94,5.94,0,0,0-1.5-.34c-.81-.11-2-.2-3.62-.25-4.62-.13-5.24.47-5.49.56-.4.14-8.72-5.27-13.42-5.65a26.22,26.22,0,0,0-3.08-.06l-1,0-.7.06-.61,0c-.94.1-1.88.24-2.81.4l-.68.13-1.09.23c-.55.12-1.08.24-1.6.38s-1,.27-1.54.42l-.81.25h0c-.27.08-.52.17-.77.26s-.51.17-.75.26c-.49.17-1,.35-1.39.53l-.24.1-.37.16c-.12.05-.23.11-.35.15l-.44.21-.11.05L93,109,93,109l-.25.14-.22.14c-.14.09-.27.17-.39.26a3.54,3.54,0,0,0-.81.76,1.46,1.46,0,0,0-.33.87c0,1.16,1.67,1.89,2.18,1.63a1.15,1.15,0,0,1,.46-.11h.2l.11,0h0l.12.07h0l.13.1h0a.41.41,0,0,1,.1.09.9.9,0,0,1,.15.19.61.61,0,0,1,.07.1,1.13,1.13,0,0,1,.11.22.7.7,0,0,1,.06.09v0h0a.58.58,0,0,1,0,.14.66.66,0,0,1,.05.15c0,.1.07.21.1.33s0,.12,0,.18a1.77,1.77,0,0,0,0,.2,5.74,5.74,0,0,1,.09.67s0,0,0,.06,0,.29,0,.45v0c0,.42,0,.89,0,1.42h0c0,.2,0,.39,0,.61s0,.23,0,.34,0,.45,0,.68,0,.37,0,.55,0,.23,0,.34v0c0,.16.06.32.09.48s.06.3.09.44.09.36.14.54.1.35.15.52a10.22,10.22,0,0,0,.37,1c.07.2.16.39.24.58l0,.08,0,.1.18.39a20.29,20.29,0,0,0,1.66,2.79l.29.39,0,.06.2.26.33.4,0,0c0,.06.07.17.21.31l.16.16a6.14,6.14,0,0,0,.6.49c.13.11.28.21.44.32s.38.28.6.41l.67.39c.48.28,1,.56,1.6.83.26.12.53.24.81.35l.09,0,.63.24.77.26.07,0,.76.22.78.19.85.16a8.29,8.29,0,0,0,.87.13l.61.06h.18a2.82,2.82,0,0,0,.41,0,7.39,7.39,0,0,0,.94,0h.42l.27,0h.22a1,1,0,0,0,.24,0l.31,0,.27,0,.51-.09a3.73,3.73,0,0,0,.46-.09l.44-.1.54-.15.51-.17h0l.44-.17a4.22,4.22,0,0,0,.45-.18l.45-.19a15.23,15.23,0,0,0,1.57-.86l.28-.19A4.13,4.13,0,0,0,119,130l0,0c.21-.15.43-.31.63-.47l.06-.05c.2-.16.41-.33.61-.51l.1-.08h0a20.88,20.88,0,0,0,1.63-1.63,17.8,17.8,0,0,0,1.2-1.53l.35-.51a4,4,0,0,0,.22-.34l.19-.33c.17-.29.34-.59.48-.88a0,0,0,0,0,0,0c.08-.15.16-.31.23-.48s.28-.63.41-.94l.17-.45h0c.09-.22.16-.44.23-.66s.14-.42.2-.63.07-.29.11-.42,0-.13,0-.18c.06-.21.1-.41.15-.61l.15-.76h0c0-.2.06-.39.08-.58a.29.29,0,0,0,0-.09c0-.19,0-.37.07-.54s0-.06,0-.09,0-.2,0-.3,0-.42,0-.59a4.39,4.39,0,0,1,.15-1.07s0,0,0,0a2,2,0,0,1,.39-2.52c1.28-1.09,5.64-.36,5.64-.36s3.09.54,2,2.91a4.08,4.08,0,0,0,0,1.43,2.7,2.7,0,0,1,0,.28c0,.1,0,.21.05.32.06.41.15.86.25,1.35h0c0,.23.1.46.16.7v0c0,.22.11.44.17.68s.13.47.2.71.09.33.14.49.09.29.14.44c.11.34.22.68.34,1h0a.08.08,0,0,1,0,.05q.15.43.33.87l.36.88c.14.3.27.6.41.89s.33.67.52,1h0c.1.19.21.37.31.55,0,0,0,0,0,0a.05.05,0,0,0,0,0l0,0c0,.08.09.15.14.23.14.23.28.45.44.67s.32.46.49.68.45.55.68.82.29.29.43.42l.15.14c.13.11.25.21.39.31a4.87,4.87,0,0,0,.52.37c.12.09.25.16.38.24l.06,0h0l.27.15.36.18.42.18.43.17c.18.07.37.13.55.18a1.6,1.6,0,0,0,.31.1l.46.13.45.11.88.16.13,0h.09l.47.07h.08a1.27,1.27,0,0,0,.28,0,4.57,4.57,0,0,0,.52.05l.53,0,.53,0,1,0a34.94,34.94,0,0,0,4-.25c.22,0,.44-.05.65-.09l.54-.1.45-.11c.33-.08.64-.17.94-.26l.44-.17a9,9,0,0,0,.9-.39l.33-.17.34-.18.22-.14a.62.62,0,0,0,.16-.1l.33-.22a4.82,4.82,0,0,0,.51-.38l0,0c.18-.14.35-.29.52-.44s.2-.18.29-.28a10.79,10.79,0,0,0,.91-1h0a2.75,2.75,0,0,0,.22-.26l.36-.5.07-.11a6.73,6.73,0,0,0,.4-.63.56.56,0,0,0,.05-.08l.24-.41c.08-.14.15-.28.22-.42l0-.06c.11-.22.21-.44.31-.66l.08-.18a2.44,2.44,0,0,0,.1-.24,1.86,1.86,0,0,0,.1-.25l.09-.23.07-.19a.06.06,0,0,0,0,0l.1-.27a1.8,1.8,0,0,0,.09-.28c0-.12.07-.23.11-.34s.15-.48.21-.72l.16-.61c0-.08,0-.16,0-.24s.07-.32.11-.48.08-.38.11-.57.05-.23.07-.34a2.89,2.89,0,0,1,0-.29c0-.31.09-.62.12-.91a4.7,4.7,0,0,0,.06-.51l0-.31c0-.17,0-.34,0-.51h0l0-.47c0-.11,0-.21,0-.31v-.3c0-.74,0-1.26,0-1.43a.33.33,0,0,1,0-.14,1.67,1.67,0,0,1,2-.66l.16,0,.12,0h.05c.76,0,1.35-.88,1.44-1.89A2.67,2.67,0,0,0,168.53,111.64Zm-50.32,17c-4.18,3.17-9.34,2.81-13.41,1.15a17.23,17.23,0,0,1-3.14-1.65A10.54,10.54,0,0,1,98.4,125,11.48,11.48,0,0,1,97,120.9a16.71,16.71,0,0,1-.17-3.56,22.23,22.23,0,0,1,.84-5.08c.38-3.32,5.9-5.39,11.84-5.46,8.39-.12,17.57,3.74,14.17,13.64A16.78,16.78,0,0,1,118.21,128.67Zm31.48,2.69a11.42,11.42,0,0,1-7.8-2.38,11.81,11.81,0,0,1-3.43-4.85,19.83,19.83,0,0,1-1.31-8.78v-.18s1.27-8.19,14-7.82,11.64,10.37,11.64,10.37,0,.2,0,.57a15.07,15.07,0,0,1-.8,5.15h0a12.48,12.48,0,0,1-.87,2,10.71,10.71,0,0,1-3.32,3.64A14.71,14.71,0,0,1,149.69,131.36Z"/><rect class="cls-17" x="95.69" y="108.85" width="0.87" height="3.77" rx="0.43"/><path class="cls-17" d="M95.69,110.3v.87H91a1.53,1.53,0,0,1,.33-.87Z"/><rect class="cls-17" x="163.35" y="110.3" width="0.78" height="3.48" rx="0.38" transform="translate(327.48 224.08) rotate(-180)"/><path class="cls-17" d="M168.56,112.44h-4.72v-.8h4.69A2.7,2.7,0,0,1,168.56,112.44Z"/></g><g id="rece"><path class="cls-2" d="M99.56,221.59l7.12-19.23a4,4,0,0,0,.26-1.45c0-2.36-1.86-4.88-4.73-6.1-3.47-1.49-7.09-.52-8.1,2.16L91,205.5l-6,16.09H99.56Z"/><path class="cls-2" d="M159.9,221.59l-7.12-19.11a4,4,0,0,1-.26-1.45c0-2.36,1.88-4.88,4.77-6.11,3.48-1.49,7.12-.52,8.13,2.16l3.28,8.8,5.86,15.71Z"/></g></g></g></g></g></svg>